<svg aria-hidden="true" style="width:0;height:0;position:absolute;overflow:hidden" xmlns="http://www.w3.org/2000/svg"><defs><symbol id="search" viewBox="0 0 32 32"><path fill="none" style="stroke:var(--color1,#fff)" stroke-width="2.667" d="M14.667 25.333c5.891 0 10.667-4.776 10.667-10.667S20.558 3.999 14.667 3.999 4 8.775 4 14.666s4.776 10.667 10.667 10.667zM28 28.001l-5.8-5.8"/></symbol><symbol id="logo" viewBox="0 0 32 32"><path fill="none" style="stroke:var(--color2,#818181)" stroke-width="2.667" d="M26.427 2.667H5.574a2.907 2.907 0 0 0-2.907 2.907v20.853a2.907 2.907 0 0 0 2.907 2.907h20.853a2.907 2.907 0 0 0 2.907-2.907V5.574a2.907 2.907 0 0 0-2.907-2.907zM9.333 2.667v26.667M22.667 2.667v26.667M2.667 16h26.667M2.667 9.333h6.667M2.667 22.667h6.667M22.667 22.667h6.667M22.667 9.333h6.667"/></symbol><symbol id="modal-close" viewBox="0 0 34 34"><path d="M23.733 10.304 22.229 8.8l-5.963 5.963L10.303 8.8l-1.504 1.504 5.963 5.963-5.963 5.963 1.504 1.504 5.963-5.963 5.963 5.963 1.504-1.504-5.963-5.963 5.963-5.963z"/></symbol><symbol id="popcorn-bucket" viewBox="0 0 32 32"><path d="M26.573 4.572a2.638 2.638 0 0 0-3.828-2.641 3.29 3.29 0 0 0-4.71-.866A2.649 2.649 0 0 0 15.921 0c-.813 0-1.569.379-2.061.994a3.285 3.285 0 0 0-4.606.937 2.638 2.638 0 0 0-3.827 2.64A3.264 3.264 0 0 0 3.12 7.71c0 .739.247 1.448.699 2.025l2.688 21.731a.608.608 0 0 0 .603.533h17.78a.608.608 0 0 0 .603-.533l2.688-21.731c.452-.577.7-1.286.7-2.025a3.264 3.264 0 0 0-2.307-3.139zM7.647 30.785 5.092 10.127H7.89l1.664 20.658H7.648zm3.125 0L9.108 10.127h3.467l.198 6.537a4.973 4.973 0 0 0 .236 7.773l.192 6.348h-2.427zm6.812 0h-3.169l-.171-5.667a4.966 4.966 0 0 0 3.512 0l-.172 5.667zM16 24.223c-2.077 0-3.767-1.69-3.767-3.767s1.69-3.767 3.767-3.767 3.767 1.69 3.767 3.767-1.69 3.767-3.767 3.767zm-2.209-14.096h4.418l-.175 5.783a4.958 4.958 0 0 0-4.069 0l-.175-5.783zM18.8 30.785l.192-6.348a4.977 4.977 0 0 0 .235-7.772l.198-6.538h3.466l-1.664 20.658h-2.428zm5.553 0h-1.906l1.664-20.658h2.798l-2.555 20.658zm2.926-21.874H4.721a2.066 2.066 0 0 1-.386-1.201c0-.952.628-1.753 1.512-1.995.321.459.896.943 1.741.943.088 0 .179-.005.274-.016.318-.038.573-.302.564-.622a.608.608 0 0 0-.688-.587c-.682.091-.954-.489-1.002-.609l-.003-.006-.002-.005a1.401 1.401 0 0 1-.096-.37 1.432 1.432 0 0 1 1.31-1.586c.414-.028.808.119 1.1.408a.608.608 0 0 0 1.011-.225 2.072 2.072 0 0 1 3.503-.706.61.61 0 0 0 1.028-.189c.205-.556.741-.93 1.334-.93.622 0 1.178.413 1.359 1.007a.633.633 0 0 0 .333.399c.265.121.565.04.735-.178a2.06 2.06 0 0 1 1.635-.801c.782 0 1.488.44 1.84 1.12a2.692 2.692 0 0 0-.315.705c-.229.831.021 1.666.705 2.349a.605.605 0 0 0 .853.006c.244-.237.224-.642-.014-.886-.351-.36-.476-.725-.381-1.113a1.262 1.262 0 0 1 .72-.855 1.43 1.43 0 0 1 .716-.108 1.428 1.428 0 0 1 1.267 1.414c0 .184-.036.364-.105.535a.607.607 0 0 0 .509.838 2.084 2.084 0 0 1 1.887 2.063c0 .434-.137.852-.386 1.201z"/><path d="M16.329 3.896c-.468 0-.915.125-1.305.359a2.232 2.232 0 0 0-1.481-.567c-1.229 0-2.228.999-2.228 2.228s.999 2.228 2.228 2.228a.608.608 0 1 0 0-1.216 1.014 1.014 0 0 1 0-2.026c.361 0 .687.187.872.5a.607.607 0 0 0 .96.113 1.33 1.33 0 0 1 2.284.924.608.608 0 1 0 1.216 0 2.547 2.547 0 0 0-2.544-2.544z"/></symbol><symbol id="popcorn" viewBox="0 0 29 32"><path d="M21.221.116c-.474.164-1.073.812-1.218 1.305-.271.976-.058 2.088.512 2.697.222.232.251.319.145.358-.077.029-.271.309-.416.619-.251.493-.28.667-.28 1.479s.029.976.261 1.411c.59 1.121 1.334 1.624 2.398 1.624.918 0 1.653-.309 2.33-1.005.628-.628 1.247-1.798 1.247-2.349 0-.338 0-.338.425-.338 1.247.019 2.601-1.721 2.282-2.91-.116-.445-.59-1.121-.889-1.276-.126-.058-.329-.242-.445-.396C27.215.9 26.635.649 25.852.6c-.86-.058-1.556.106-2.069.474l-.387.28-.135-.28c-.213-.396-.773-.851-1.189-.967-.435-.126-.474-.126-.851.01zm1.266.416c.193.145.464.454.599.686.28.454.454.532.551.242.029-.106.261-.29.512-.416.377-.184.609-.222 1.373-.222 1.044 0 1.556.193 1.934.725.116.155.261.29.338.29.174 0 .715.638.889 1.054.184.425.097 1.005-.213 1.508-.126.213-.242.348-.242.3 0-.058-.126.029-.28.174-.164.155-.522.358-.802.454-.329.116-.425.174-.28.184.126 0 .474-.135.764-.3.29-.155.493-.242.454-.184-.029.058-.29.232-.561.387-.377.222-.628.29-1.005.29h-.512v.425c0 .648-.638 1.847-1.305 2.456-1.189 1.083-2.794 1.15-3.741.145-.145-.145-.377-.532-.532-.851-.232-.493-.271-.696-.261-1.353.01-.667.048-.86.319-1.382.164-.329.348-.599.396-.599.058 0 .039.097-.039.213-.213.329-.541 1.392-.532 1.692.01.203.029.174.097-.145.097-.493.474-1.556.58-1.614.039-.029.232.039.425.155s.377.174.416.135c.039-.039.019-.097-.039-.116-.358-.126-1.034-.648-1.237-.967-.377-.58-.561-1.402-.445-2.088.213-1.344 1.431-2.001 2.378-1.276z"/><path d="M24.643 1.044c-.425.155-1.083.561-.754.464.087-.019.203 0 .251.048.058.058.242.029.483-.087.348-.155.377-.193.242-.28-.145-.106-.145-.116.048-.116.116-.01.242-.058.271-.106.077-.126-.01-.116-.541.077zM20.457 1.779c-.039.203-.048.396-.019.425s.058-.058.068-.184l.01-.232.077.242c.048.145.077.174.087.077.01-.087.039-.232.077-.329.039-.106.029-.145-.048-.106-.058.039-.116-.01-.135-.097-.019-.097-.068-.01-.116.203zM26.837 1.827c-.174.068-.174.077-.019.135.271.106.416.077.483-.077.058-.155-.145-.184-.464-.058zM23.657 2.388c-.039.029-.068.338-.068.677 0 .406-.058.696-.155.851-.087.135-.135.3-.106.377.087.213.59.28.967.116.319-.126.358-.126.512.048a.5.5 0 0 0 .416.164c.164-.019.242.019.232.097-.029.135.213.145.503.019.164-.068.145-.087-.126-.087-.28-.01-.309-.029-.251-.242.029-.135-.01-.358-.097-.522s-.155-.406-.155-.532c0-.271-.116-.387-.561-.532a2.027 2.027 0 0 1-.57-.309c-.251-.203-.435-.242-.541-.126zm.493.367c.116.087.367.213.561.28.309.106.377.184.474.551.068.232.135.483.155.561s-.039.164-.135.184c-.213.048-.551-.242-.551-.454.01-.106.058-.077.155.087.155.242.145.232-.077-.435-.135-.377-.271-.532-.213-.232.029.193.019.184-.097-.058-.116-.232-.145-.251-.155-.097-.01.174-.019.164-.106-.039-.068-.164-.126-.203-.193-.135-.077.077-.048.271.068.657.135.425.193.512.251.367.068-.155.077-.155.048.019-.019.145-.106.193-.387.213-.367.029-.416-.019-.261-.261.087-.126.106-.126.203 0 .087.116.087.106.029-.048-.097-.261-.145-1.305-.058-1.305.039 0 .164.068.29.145zm.406.88c0-.106.019-.164.048-.135.039.029.029.184-.01.329l-.068.28-.126-.29c-.174-.387-.155-.657.01-.29.097.213.135.242.145.106zM20.302 3.074c0 .164.783 1.083 1.063 1.257.135.077.087.01-.106-.155a4.22 4.22 0 0 1-.657-.764c-.164-.242-.3-.396-.3-.338zM21.172 3.451c0 .048.145.213.319.377.164.155.251.213.193.135-.213-.232-.135-.329.097-.135l.213.184-.184-.222c-.106-.116-.203-.193-.232-.164s-.135-.019-.232-.116c-.097-.087-.174-.116-.174-.058zM23.811 5.172c0 .087.106.116.3.097.164-.01.213 0 .106.019-.387.087-.377.222.019.222.3 0 .396-.039.377-.145-.029-.193-.058-.203-.454-.271-.251-.039-.348-.019-.348.077zM20.843 5.269c-.029.077-.029.29-.01.464.039.251.029.271-.039.116-.077-.145-.087-.087-.048.242.029.319.019.387-.048.242-.106-.213-.145-.058-.048.184.097.261.203.174.261-.213.029-.193.087-.464.126-.59.048-.174.039-.213-.058-.155s-.106.019-.058-.184c.068-.271.019-.348-.077-.106zM23.85 5.791c.039.164.126.203.474.203.309 0 .425-.039.425-.145 0-.097-.097-.145-.329-.145-.184 0-.396-.029-.474-.058-.116-.039-.135 0-.097.145zM25.629 6.255c-.01.116-.203.59-.445 1.044-.464.889-.445 1.054.029.213.338-.59.541-1.179.474-1.353-.029-.058-.058-.019-.058.097zM25.136 6.729c-.135.377-.319.735-.242.493.029-.106.068-.3.097-.435l.048-.261-.106.242c-.068.135-.126.416-.135.628l-.019.387.28-.609c.164-.338.271-.638.232-.667-.029-.029-.097.068-.155.222zM23.173 8.575c-.145.145-.048.222.251.213l.309-.019-.58-.097.29-.068c.28-.068.28-.077.039-.087-.135 0-.28.019-.309.058zM22.97 8.904c.019.039-.039.097-.126.116-.097.029.01.048.232.058.493.01.638-.145.184-.203-.184-.019-.319-.01-.29.029zM22.323 9.213c.039.048.309.068.599.048l.522-.029-.599-.048c-.329-.029-.561-.01-.522.029zM12.259.435a.756.756 0 0 0-.319.338c-.048.155-.097.174-.242.097-.696-.367-1.856.309-2.137 1.257-.097.3-.087.464.039.822.145.445.135.464-.097.812-.213.309-.232.416-.184.918.097.947.638 1.663 1.537 2.04.725.3 1.827.106 2.726-.493.483-.319.918-.909.918-1.237 0-.116.106-.155.474-.155 1.431 0 2.204-1.005 1.663-2.175a2.23 2.23 0 0 0-.406-.599c-.367-.338-1.112-.628-1.547-.599-.358.029-.387.01-.59-.396-.358-.686-1.189-.976-1.837-.628zm1.189.271c.28.184.648.725.667.957 0 .126-.271.087-.309-.039-.058-.164-.541.048-.628.261-.068.203.029.3.184.174.068-.058.251-.087.416-.068.222.019.251.01.145-.068s-.068-.087.145-.048c.213.048.251.039.145-.039-.106-.068.029-.097.493-.097.541 0 .696.039 1.044.271.483.329.628.522.773 1.034.087.329.077.445-.097.802-.116.222-.329.474-.474.551-.396.203-1.131.348-1.411.28-.358-.087-.097-.232.3-.164.174.029.338.01.367-.029.058-.106-.667-.106-.986 0-.174.058-.213.048-.155-.048.048-.077.048-.106 0-.068-.039.039-.155.029-.261-.029s-.213-.077-.242-.058c-.029.029.145.145.377.271.532.261.512.251.367.425-.068.077-.087.145-.058.145.174 0-.329.638-.706.899-.232.155-.396.242-.358.184.039-.077.019-.097-.068-.058-.077.029-.174.01-.213-.048-.029-.058 0-.106.068-.106.087 0 .087-.029-.019-.097-.116-.077-.116-.097-.01-.097.077 0 .116-.019.087-.048s-.184.01-.358.077l-.3.126.358.174.367.174-.271.135c-.145.077-.541.164-.889.203-.551.048-.686.029-1.16-.213-.648-.319-1.054-.822-1.199-1.508-.135-.628-.135-.686.039-.918.145-.184.145-.184.087.01-.048.155-.039.164.039.048.058-.077.077-.174.048-.222-.029-.039.029-.164.116-.261.145-.164.145-.203.01-.474-.367-.706-.068-1.528.715-1.924.735-.367 1.15-.251 1.17.309.01.338.164.802.174.522a.365.365 0 0 1 .164-.251c.106-.058.145-.164.106-.3-.029-.106-.01-.184.039-.145.126.077.106-.039-.058-.29-.116-.184-.126-.242-.029-.319.358-.28.831-.28 1.247 0z"/><path d="M11.582 1.692c-.058.503-.048.58.087.522.039-.019.058-.261.029-.522l-.048-.483-.068.483zM14.792 1.934c.116.087.087.106-.145.058-.155-.029-.232-.029-.164 0 .058.029.097.087.077.126-.048.077.203.116.754.116.28.01.348.029.242.106s-.097.087.039.039c.097-.029.203-.058.232-.058.174 0-.338-.329-.541-.348a2.03 2.03 0 0 1-.445-.087c-.164-.058-.174-.048-.048.048zM10.596 3.558c-.097.28.087.812.348 1.044.135.116.174.126.116.039a1.36 1.36 0 0 1-.097-.242c0-.058-.019-.164-.029-.242-.01-.126-.019-.126-.116 0-.077.116-.087.106-.048-.048a1.062 1.062 0 0 0-.029-.483c-.068-.28-.077-.28-.145-.068zM9.774 4.35c0 .213.164.57.174.387.01-.126.019-.126.106 0s.097.126.097 0a.679.679 0 0 0-.097-.29c-.087-.126-.097-.126-.106 0 0 .097-.029.077-.087-.048-.048-.126-.087-.135-.087-.048zM13.825 5.172c-.232.242-.155.348.087.116.106-.097.106-.077.01.116-.077.145-.077.203-.01.164a.827.827 0 0 0 .213-.271c.087-.155.077-.184-.019-.126-.087.058-.106.029-.058-.077.087-.222.048-.203-.222.077zM12.423 6.236l.29.145-.338-.058c-.28-.039-.309-.029-.164.058.097.068.29.087.425.048.232-.058.242-.068.068-.193a.75.75 0 0 0-.377-.135c-.145 0-.126.029.097.135zM11.311 6.477c.135.087.957.145.86.058-.019-.019-.251-.058-.522-.097-.329-.039-.435-.029-.338.039zM4.679 8.585c-.899.309-1.218.657-1.344 1.45-.019.145-.068.425-.097.628-.048.319-.077.348-.242.261-.3-.155-.87-.106-1.218.106-.474.29-1.063.996-1.402 1.682-.242.493-.3.725-.309 1.334-.01.648.019.764.213.976.116.126.406.3.648.396.232.087.425.174.425.193s-.145.242-.319.512c-.396.58-.648 1.518-.648 2.407 0 .822.358 1.624.986 2.233.483.464.851.599 1.653.599.638 0 1.121-.203 1.566-.677.271-.29.29-.338.261-1.025-.019-.396-.01-.715.019-.715.019 0 .126.145.232.319.367.638 1.402.841 2.214.445.503-.242 1.044-.918 1.199-1.479.135-.503-.097-1.595-.454-2.117-.232-.358-.851-.744-1.16-.744-.116 0-.068-.097.184-.377.416-.454.551-.889.454-1.47-.087-.57-.338-1.025-.686-1.237l-.28-.174.203-.184c.367-.329.57-.86.57-1.46-.01-.967-.135-1.392-.522-1.74-.319-.3-.396-.319-.996-.319-.367.01-.88.077-1.15.174zm1.992.29c.203.203.261.348.232.561-.039.232-.029.251.048.087s.097-.135.097.164c.01.232-.039.367-.106.377-.097 0-.097.019 0 .058.174.068.145.996-.039 1.286-.251.367-.841.967-.957.967-.048 0 0-.077.106-.174.232-.184.812-.967.812-1.092 0-.039-.087-.058-.184-.039-.145.029-.174-.01-.145-.126.048-.135.019-.126-.097.019-.203.251-.193.348.029.3.135-.029.174.01.135.116-.029.077-.087.106-.116.058-.097-.135-.28-.126-.406.029-.077.097-.087.174-.019.242.077.077.126.068.174-.019.058-.077.039-.097-.058-.039-.077.048-.097.039-.058 0 .087-.106.358-.155.358-.068 0 .029-.135.203-.309.377-.271.28-.464.706-.309.706.029 0 .184-.097.348-.203.29-.213.29-.213.541-.019.145.106.338.338.425.522.193.358.242 1.247.068 1.247-.058 0-.077.077-.039.184.039.135-.077.29-.435.619-.261.242-.483.464-.483.493s.184.058.396.058c.773 0 1.276.532 1.566 1.672.135.493.135.628.01 1.025-.193.667-.909 1.324-1.547 1.421-.841.126-1.295-.155-1.943-1.179-.097-.155-.116-.01-.116.764-.01.522-.058 1.034-.116 1.141s-.3.329-.551.483c-.744.474-1.808.348-2.465-.28-.899-.86-1.15-2.03-.706-3.345.145-.416.396-.947.551-1.189.358-.512.329-.551-.493-.967-.435-.222-.541-.329-.58-.561-.077-.445.048-1.208.3-1.74.3-.648 1.286-1.634 1.721-1.721.406-.087.822.106.86.396.058.377.213.222.213-.213 0-.561.155-1.353.348-1.76.251-.522 1.112-.889 2.098-.899.493-.01.599.019.841.261z"/><path d="M3.819 10.76c.039.184.019.251-.048.213-.058-.039-.097.058-.097.232 0 .435.164.445.232.019.029-.213.087-.464.116-.561.039-.126.029-.145-.039-.039-.077.106-.106.106-.155 0-.029-.077-.039-.01-.01.135zM.87 12.781c-.222.367-.483 1.179-.474 1.47 0 .116.058-.019.126-.28a5.53 5.53 0 0 1 .377-.996c.28-.561.261-.677-.029-.193zM6.932 12.819c-.077.135.029.522.135.522s.106-.164 0-.425c-.039-.106-.097-.145-.135-.097zM3.925 13.274c-.561.725-.947 2.011-.638 2.117.068.019.068.126 0 .329-.058.174-.097.541-.077.822l.029.522.338.01c.184 0 .454.029.59.068.464.116.793-.493.909-1.663.029-.396.145-.938.251-1.208.184-.464.193-.493.029-.609-.097-.068-.203-.126-.251-.126-.039 0-.077-.106-.077-.232 0-.251-.155-.348-.58-.348-.203 0-.348.087-.522.319zm.774-.145a.575.575 0 0 1 .164.222c.039.135 0 .164-.232.145-.155-.01-.28.01-.28.039 0 .126.377.406.474.348.048-.039.116-.019.145.029.039.048.01.126-.048.164-.077.039-.087.029-.048-.039s.048-.116.019-.116c-.135 0-.135.184.01.3.135.116.155.116.077-.01-.058-.116-.048-.116.048-.029.087.077.097.193.019.435-.058.174-.126.58-.155.909-.029.319-.116.715-.203.87-.077.155-.145.329-.145.396 0 .232-.213.242-.445.019-.126-.116-.232-.184-.232-.135s-.048.039-.116-.029c-.164-.164-.319-.145-.174.029.068.077.097.145.058.145h-.126c-.048 0-.077-.039-.077-.087s-.029-.116-.058-.145c-.029-.029-.019-.309.029-.609.048-.367.039-.628-.029-.764-.087-.164-.058-.329.135-.802.28-.696.638-1.247.841-1.305.232-.058.232-.058.348.019zM.744 13.776c-.097.261-.164.541-.155.619 0 .087.068-.058.145-.319.087-.251.164-.445.193-.416s-.019.29-.106.599c-.087.3-.145.561-.126.59.029.019.126-.213.213-.512.116-.396.145-.628.077-.793-.077-.222-.097-.213-.242.232zM5.578 14.328c.039.184.029.193-.058.077-.097-.126-.106-.126-.106 0 0 .077-.029.251-.048.387-.048.213-.039.213.039.048.068-.135.097-.155.106-.048.01.077.058.039.097-.097.106-.338.116-.58.01-.58-.048 0-.068.097-.039.213zM1.798 14.54c-.029.126-.087.309-.116.416-.048.116-.039.145.029.077.145-.135.329-.725.232-.725-.048 0-.116.106-.145.232zM6.825 14.453c-.029.077-.106.135-.174.126-.058-.019-.135.058-.155.164-.039.193-.039.193.164.01.106-.106.203-.135.203-.077s-.116.193-.251.3c-.145.116-.213.203-.155.203.145 0 .706-.677.648-.783-.087-.135-.213-.106-.28.058zM6.613 15.807c.203.068.532.261.735.425.406.329.58.396.377.145-.193-.232-1.073-.715-1.295-.706-.116 0-.039.058.184.135zM6.961 16.251c.203.164.213.193.048.145-.116-.039-.048.068.193.271.387.338.657.464.445.222-.058-.077-.077-.155-.048-.184s-.126-.193-.329-.358c-.425-.329-.696-.416-.309-.097zM1.121 17.083c-.193.396-.348 1.228-.329 1.798l.01.503.116-1.257.087.609c.039.329.126.628.174.657.068.039.068-.077.019-.358a4.454 4.454 0 0 1-.077-.744c0-.193-.029-.271-.077-.193-.155.242-.077-.3.106-.793.203-.532.193-.638-.029-.222zM4.099 18.9c0 .474.01.686.029.464s.019-.619 0-.87-.029-.077-.029.406zM4.834 18.32c0 .145.735.851.909.88.261.039.242-.232-.019-.406-.145-.097-.29-.164-.329-.155-.048.01-.077-.029-.077-.087s-.058-.087-.116-.058c-.068.019-.174-.029-.242-.116s-.126-.106-.126-.058zm.599.387c.029-.029.126.029.213.135.097.097.126.213.077.242s-.213-.087-.367-.251c-.155-.174-.213-.261-.126-.193.087.058.174.097.203.068z"/><path d="M1.208 18.514c.029.097.087.367.116.599.029.261.106.416.184.416.174 0 .184-.541.01-.648-.068-.039-.174-.184-.242-.319s-.097-.155-.068-.048zM3.896 19.045c0 .348.019.483.039.309a3.466 3.466 0 0 0 0-.628c-.019-.164-.039-.029-.039.319zM3.509 19.142c0 .348.019.483.039.309a3.466 3.466 0 0 0 0-.628c-.019-.164-.039-.029-.039.319zM3.703 19.094c0 .319.019.435.039.261s.019-.435 0-.58c-.019-.145-.039 0-.039.319zM19.529 10.663c-.464.145-1.092.812-1.305 1.363l-.174.454-.232-.222c-.3-.28-1.121-.3-1.518-.048-.464.309-.773.899-.812 1.566-.039.57-.048.599-.358.715-.416.145-1.17.957-1.421 1.527-.261.58-.329 1.45-.174 2.03.184.638 1.131 1.605 1.74 1.769.522.145 1.363 0 1.76-.29.145-.106.271-.193.29-.193s.029.232.039.512c.01.648.348 1.431.793 1.827.928.812 1.953.87 3.335.184 1.044-.522 1.498-.918 1.856-1.605.541-1.073.367-2.301-.425-3.142l-.358-.377.483-.242c.822-.406 1.092-1.015.793-1.75-.203-.474-.638-.667-1.46-.677h-.686l.135-.387c.193-.541.184-1.47-.019-1.934-.425-.996-1.276-1.402-2.282-1.083zm1.305.223c.387.184.773.744.928 1.324.116.474-.01 1.334-.271 1.837-.174.338-.116.416.174.261.135-.077.454-.106.889-.068.541.039.715.087.909.28.348.348.406.938.126 1.315-.251.338-1.083.735-1.353.648-.3-.097-.126.3.193.435.599.251 1.121 1.411 1.034 2.282-.058.599-.464 1.392-.87 1.74-.715.599-2.098 1.199-2.784 1.199-.822 0-1.634-.541-2.011-1.344-.203-.435-.251-.667-.232-1.218 0-.377.077-.87.164-1.102s.135-.445.116-.464c-.068-.068-.348.512-.348.706 0 .319-.609.783-1.189.909-.309.058-.638.077-.725.039s-.203-.058-.251-.048c-.116.029-1.025-.599-1.025-.696 0-.048.135.029.3.164.222.184.338.232.464.164.106-.058.213-.058.309.01.106.077.097.087-.039.039-.097-.029-.155-.019-.116.039s-.01.068-.116.029c-.097-.029-.145-.029-.106.019.039.039.271.087.503.097.358.01.425-.01.396-.155s.019-.164.309-.126c.184.019.387.068.445.106.048.029.068.01.029-.048-.029-.048-.01-.116.048-.135s-.01-.087-.155-.155c-.193-.087-.232-.087-.184 0 .048.077.019.087-.087.048-.097-.029-.164-.029-.164.019 0 .039-.126.068-.29.058-.155-.01-.261.019-.232.068.029.039.01.077-.048.077-.048 0-.116-.039-.155-.087-.029-.058-.193-.077-.367-.058-.232.029-.367-.019-.561-.203-.145-.135-.3-.232-.348-.213-.184.077-.464-.744-.464-1.373 0-.812.251-1.46.793-2.04.367-.387.957-.773 1.025-.657.01.019.116.174.242.348.261.377.28.503.039.29-.174-.155-.184-.155-.164.029a.61.61 0 0 0 .145.319c.116.097.116.087.01-.058-.155-.203.01-.222.184-.019.068.077.087.145.058.145-.039 0-.039.048-.01.097.039.058.106.077.155.039.058-.039.058-.106-.019-.193-.068-.077-.068-.135-.01-.135.164 0 .329.261.213.338-.058.029-.077.106-.039.155.029.048.097.068.145.029.048-.029.068-.097.039-.145-.077-.116.019-.106.251.01.116.068.184.068.184.01s.068-.068.164-.039c.106.039.135.029.087-.058-.048-.068-.135-.097-.203-.068-.164.058-.744-.319-.802-.522-.029-.087.077-.039.232.106.251.232.619.309.764.174.029-.029-.058-.155-.193-.28s-.242-.174-.242-.106c0 .068-.048.087-.116.048s-.039.019.058.135c.106.116.135.213.077.213-.048 0-.213-.126-.338-.29-.145-.174-.261-.242-.28-.174-.087.242-.406-.435-.445-.938-.077-.996.541-1.789 1.402-1.789.348 0 .445.048.754.406.184.222.367.512.396.628.039.126.106.222.155.222.106 0 .01-.57-.135-.744-.261-.319.58-1.643 1.228-1.924a1.776 1.776 0 0 1 1.353.019z"/><path d="M18.543 11.959c-.174.445-.116 1.257.077 1.063.068-.058.116-1.324.068-1.324-.019 0-.087.116-.145.261zM21.491 12.955c-.058.454-.135.909-.174 1.015-.048.155-.048.164.039.048.126-.184.329-1.334.29-1.643-.019-.135-.087.126-.155.58zM18.011 13.361c.164.309.348.551.387.561.097 0-.184-.483-.483-.851-.155-.174-.126-.087.097.29zM21.037 13.264c-.087.396-.01.744.126.599.048-.048.106-.28.135-.522.039-.271.029-.358-.019-.242-.077.193-.077.193-.126 0-.029-.145-.068-.097-.116.164zM20.089 14.444c-.242.367-.406.445-.986.445-.348 0-.367.01-.3.261.048.222-.019.329-.503.822-.464.474-.541.59-.445.735.077.126.213.155.628.135l.532-.029.106.367c.155.493.474.996.628.996.077 0 .29-.271.493-.609.222-.387.512-.725.793-.928.425-.3.435-.319.28-.493-.126-.135-.145-.271-.097-.609.058-.387.039-.454-.135-.551-.116-.058-.28-.28-.358-.493-.193-.464-.358-.474-.638-.048zm.561.241c.077.213.213.406.28.435.087.029.116.164.077.435-.039.261-.01.445.077.551.106.135.087.184-.106.329-.232.184-.242.184-.271 0-.048-.3-.213-.222-.213.087 0 .164-.039.319-.097.348-.058.039-.068-.058-.029-.261.029-.174.019-.29-.019-.242-.048.039-.097.232-.106.435-.01.193-.116.522-.232.725-.261.445-.377.387-.677-.367-.116-.29-.28-.532-.348-.532-.077 0-.135-.097-.145-.222-.01-.203-.01-.203-.087.029l-.077.242-.01-.271c-.01-.367-.203-.329-.213.048-.019.3-.019.309-.058.048-.029-.213.039-.358.309-.667.222-.242.338-.454.309-.561-.039-.145.039-.184.406-.222s.493-.106.725-.396c.155-.193.3-.348.319-.348s.097.174.184.377z"/><path d="M19.77 17.092c-.039.28-.048.541-.019.57.068.068.193-.793.145-.957-.029-.068-.077.106-.126.387zM21.588 14.521c-.174.058-.319.145-.319.193s.087.039.203-.019c.145-.087.232-.077.338.01.077.058.174.087.203.048.039-.039.01-.106-.068-.155-.097-.058-.039-.097.203-.126.3-.029.3-.039.039-.039a2.186 2.186 0 0 0-.599.087zM15.507 15.749c.077.126.735.503.735.416 0-.068-.628-.503-.725-.503-.039 0-.039.039-.01.087zM23.164 15.923c-.039.039-.261.077-.493.077-.242.01-.464.039-.493.077-.087.087.029.358.164.358.077 0 .068-.048-.019-.164-.126-.145-.116-.145.077-.039.184.087.29.077.609-.087.367-.193.474-.29.309-.29a.25.25 0 0 0-.155.068zM21.027 17.112c-.155.106-.251.193-.213.193s.029.087-.029.193c-.126.232-.087.242.319.048.28-.145.29-.145.116 0-.106.087-.29.174-.406.213-.126.029-.222.087-.222.135 0 .087.425-.097.851-.377.164-.106.193-.174.106-.271-.135-.164-.319-.184-.222-.019.039.068.029.077-.048.039-.087-.058-.087-.106 0-.213.155-.184.097-.174-.251.058zM22.526 17.353c0 .029.068.155.145.28.145.222.106.59-.058.483-.116-.068-.116-.048.068.483.087.251.174.435.203.406.029-.019 0-.203-.068-.396-.097-.28-.097-.377 0-.464s.116-.077.068.048c-.039.097-.019.174.039.174s.087.058.058.135c-.029.077.01.193.087.261.126.106.135.077.087-.164-.126-.532-.628-1.537-.628-1.247zM18.079 18.05c-.058.203-.126.754-.145 1.237l-.039.87.087-.841c.048-.454.155-1.005.232-1.228.068-.222.097-.396.048-.396-.039 0-.126.164-.184.358zM18.137 18.871c-.077.309-.068.851.019.851.039 0 .077-.242.087-.532.01-.57-.01-.657-.106-.319zM18.272 19.258c0 .126.048.29.097.367.068.106.097.048.097-.222 0-.193-.039-.358-.097-.358-.048 0-.097.097-.097.213zM22.139 19.828c-.126.077-.116.106.029.222.106.087.135.155.068.184-.058.029-.058.048.01.029.135-.019.222-.416.106-.483-.039-.029-.135 0-.213.048z"/><path d="M21.897 20.205c-.029.048-.029.097.019.097.039 0 .01.048-.068.106-.116.077-.097.087.077.039.29-.087.271.01-.048.193-.222.126-.232.145-.048.097.29-.087.271.01-.048.184-.155.077-.222.145-.174.155.058 0 .251-.097.435-.203l.338-.203-.184.193c-.097.116-.377.3-.609.416s-.406.222-.377.251c.058.058.996-.445 1.131-.609s.029-.329-.184-.271c-.145.048-.145.039.01-.087s.155-.145.019-.203c-.087-.029-.126-.097-.097-.155.029-.048.019-.097-.039-.097a.199.199 0 0 0-.155.097zM11.234 21.317c-.416.193-.541.309-.696.648-.203.454-.232.889-.106 1.45l.087.367h-.425c-.377 0-.483.048-.851.425-.561.551-.773.967-.706 1.373.048.29.029.329-.261.425-.174.058-.503.261-.725.445-.367.319-.396.387-.396.812 0 .706.338 1.692.744 2.137.309.338.387.377.822.377.454 0 .474.01.406.213-.261.841-.222 1.054.29 1.508a2.041 2.041 0 0 0 1.537.474c.435-.058.677-.251.851-.667.116-.28.135-.29.609-.242.831.077 1.257-.155 1.905-1.034.309-.416.348-.706.145-1.112-.145-.261-.135-.271.222-.425.493-.222 1.131-.686 1.305-.967.222-.329.396-2.417.261-2.939-.242-.88-.996-1.353-2.03-1.257l-.57.048.145-.348c.561-1.353-1.034-2.427-2.562-1.711zm1.653.087c.889.377 1.025 1.237.358 2.262-.213.329-.338.599-.29.599s.135-.087.193-.193c.058-.116.164-.164.271-.135.135.048.145.039.019-.048-.425-.319.889-.541 1.653-.29.909.309 1.112.976.909 2.968-.087.88-.319 1.189-1.295 1.701-.58.3-.725.348-1.083.29-.3-.048-.387-.039-.338.039.039.068.261.116.493.116.387 0 .425.019.532.329.135.416.039.638-.561 1.295l-.474.522-1.46-.019-.155.338c-.087.184-.251.396-.377.483-.454.319-1.47.048-1.895-.493-.222-.28-.232-.609-.048-1.276.048-.174.019-.213-.145-.213-.106 0-.203-.048-.203-.097 0-.068-.126-.087-.319-.048-.261.048-.358.01-.58-.222-.358-.367-.744-1.44-.744-2.05 0-.425.039-.503.319-.715.174-.135.474-.309.667-.396.319-.126.387-.126.706.01.193.077.406.126.464.106.068-.029-.01-.097-.174-.164-.696-.271-.802-.696-.348-1.315.802-1.092 1.382-1.189 1.75-.28.116.29.251.532.3.532.116 0 .126.058-.155-.725a3.89 3.89 0 0 1-.242-1.421c0-.648.029-.773.242-1.025.425-.512 1.392-.735 2.011-.464z"/><path d="M13.341 22.893c0 .048-.155.329-.338.648-.193.309-.329.58-.3.599.058.058.735-1.054.735-1.199 0-.068-.019-.126-.048-.126s-.048.039-.048.077zM11.137 23.918c-.155.348-.145.435.029.213.106-.145.145-.155.145-.048a.52.52 0 0 1-.116.271c-.097.097-.097.145-.01.174.068.019.087.106.058.184-.077.203.048.164.155-.048.068-.126.068-.309-.019-.59l-.116-.416-.126.261zM14.405 23.84c.541.164.58.164.348-.01a.884.884 0 0 0-.483-.135c-.271 0-.261.019.135.145zM13.728 23.869c.126.097.126.106 0 .116-.097 0-.077.029.048.087.271.116.416.116.242-.01-.106-.068-.058-.077.193-.039.222.048.309.039.242-.029-.048-.048-.271-.126-.483-.155-.28-.048-.348-.039-.242.029zM13.148 24.527c0 .077.068.203.145.28.126.135.145.116.145-.135 0-.184-.048-.28-.145-.28-.077 0-.145.068-.145.135zM10.489 24.653c-.077.251.184.696.377.619.116-.048.106-.116-.068-.406-.106-.193-.213-.367-.222-.387s-.048.058-.087.174zM14.289 24.904c-.019.242 0 .464.039.483.048.029.077-.174.077-.435 0-.619-.068-.638-.116-.048zM14.53 24.962c-.01.348.01.464.068.367.116-.174.126-.87.029-.87-.048 0-.087.232-.097.503zM14.801 24.914c-.01.28.039.512.087.512.116 0 .116-.551 0-.822-.058-.145-.087-.058-.087.309zM15.091 25.107c0 .406.029.503.087.367.116-.271.116-.918 0-.918-.058 0-.097.242-.087.551zM15.401 25.281c0 .367.019.512.039.309a4.026 4.026 0 0 0 0-.677c-.019-.164-.039-.01-.039.367zM15.584 25.571c0 .512.019.706.077.58.106-.242.106-.793 0-1.112-.048-.164-.077 0-.077.532zM8.778 26.383c.068.039.116.135.097.203s.126.213.309.309c.261.145.3.155.145.029-.193-.164-.193-.164.048-.116.29.068.619-.077.387-.164-.889-.329-1.218-.416-.986-.261zM14.26 27.456l-.29.077.29.019c.271.029.271.029.048.068-.416.077-.406.184.019.174.387-.01.667-.232.3-.251-.155 0-.155-.01.019-.087.242-.106.019-.106-.387 0zM14.956 27.814c-.039.029-.309.077-.619.087-.3.019-.59.077-.648.145-.077.077-.058.097.087.058.106-.039.329-.087.483-.116.271-.048.28-.048.058.048a3.547 3.547 0 0 1-.725.184c-.435.077-.454.087-.145.097.406.01 1.218-.213 1.489-.416.106-.087.164-.155.135-.155s-.087.029-.116.068zM8.653 28.906c-.193.087-.193.087 0 .087.106 0 .367-.039.58-.077l.387-.087h-.387c-.213 0-.474.029-.58.077zM8.749 29.1l-.387.068.338.01c.184 0 .445-.039.58-.077.309-.097.019-.097-.532 0zM8.701 29.293l-.435.068.387.01c.213 0 .58-.029.822-.068l.435-.077h-.387c-.213 0-.58.029-.822.068zM13.148 29.767l.338.068-.387.077-.387.087.58.271-.387-.048c-.28-.039-.329-.029-.193.039.164.068.145.087-.116.087-.174.01-.319.048-.319.097s.271.029.599-.048c.609-.145.812-.232.532-.232-.087 0-.184-.048-.213-.097-.039-.068.029-.077.203-.039.184.048.242.039.193-.048-.039-.058-.01-.106.058-.116.251-.01-.271-.174-.551-.164s-.28.01.048.068zM10.199 30.647c.164.106.358.193.435.193s0-.087-.174-.193c-.406-.251-.638-.251-.261 0zM13.003 30.511a7.954 7.954 0 0 1-.677.126c-.464.068-.503.087-.193.087.213 0 .609-.058.87-.126.271-.068.396-.126.29-.126s-.242.019-.29.039zM10.441 31.033c.329.193.232.203-.29.019-.077-.029-.106-.01-.068.039.116.126.841.319.841.232 0-.106-.28-.387-.387-.387-.048 0-.164-.029-.261-.058s-.019.039.164.155z"/></symbol></defs></svg>