<svg aria-hidden="true" style="width:0;height:0;position:absolute;overflow:hidden" xmlns="http://www.w3.org/2000/svg"><defs><symbol id="search" viewBox="0 0 32 32"><path fill="none" style="stroke:var(--color1,#fff)" stroke-width="2.667" d="M14.667 25.333c5.891 0 10.667-4.776 10.667-10.667S20.558 3.999 14.667 3.999 4 8.775 4 14.666s4.776 10.667 10.667 10.667zM28 28.001l-5.8-5.8"/></symbol><symbol id="logo" viewBox="0 0 32 32"><path fill="none" style="stroke:var(--color2,#818181)" stroke-width="2.667" d="M26.427 2.667H5.574a2.907 2.907 0 0 0-2.907 2.907v20.853a2.907 2.907 0 0 0 2.907 2.907h20.853a2.907 2.907 0 0 0 2.907-2.907V5.574a2.907 2.907 0 0 0-2.907-2.907zM9.333 2.667v26.667M22.667 2.667v26.667M2.667 16h26.667M2.667 9.333h6.667M2.667 22.667h6.667M22.667 22.667h6.667M22.667 9.333h6.667"/></symbol><symbol id="modal-close" viewBox="0 0 34 34"><path d="M23.733 10.304 22.229 8.8l-5.963 5.963L10.303 8.8l-1.504 1.504 5.963 5.963-5.963 5.963 1.504 1.504 5.963-5.963 5.963 5.963 1.504-1.504-5.963-5.963 5.963-5.963z"/></symbol><symbol id="popcorn-bucket" viewBox="0 0 32 32"><path d="M26.573 4.572a2.638 2.638 0 0 0-3.828-2.641 3.29 3.29 0 0 0-4.71-.866A2.649 2.649 0 0 0 15.921 0c-.813 0-1.569.379-2.061.994a3.285 3.285 0 0 0-4.606.937 2.638 2.638 0 0 0-3.827 2.64A3.264 3.264 0 0 0 3.12 7.71c0 .739.247 1.448.699 2.025l2.688 21.731a.608.608 0 0 0 .603.533h17.78a.608.608 0 0 0 .603-.533l2.688-21.731c.452-.577.7-1.286.7-2.025a3.264 3.264 0 0 0-2.307-3.139zM7.647 30.785 5.092 10.127H7.89l1.664 20.658H7.648zm3.125 0L9.108 10.127h3.467l.198 6.537a4.973 4.973 0 0 0 .236 7.773l.192 6.348h-2.427zm6.812 0h-3.169l-.171-5.667a4.966 4.966 0 0 0 3.512 0l-.172 5.667zM16 24.223c-2.077 0-3.767-1.69-3.767-3.767s1.69-3.767 3.767-3.767 3.767 1.69 3.767 3.767-1.69 3.767-3.767 3.767zm-2.209-14.096h4.418l-.175 5.783a4.958 4.958 0 0 0-4.069 0l-.175-5.783zM18.8 30.785l.192-6.348a4.977 4.977 0 0 0 .235-7.772l.198-6.538h3.466l-1.664 20.658h-2.428zm5.553 0h-1.906l1.664-20.658h2.798l-2.555 20.658zm2.926-21.874H4.721a2.066 2.066 0 0 1-.386-1.201c0-.952.628-1.753 1.512-1.995.321.459.896.943 1.741.943.088 0 .179-.005.274-.016.318-.038.573-.302.564-.622a.608.608 0 0 0-.688-.587c-.682.091-.954-.489-1.002-.609l-.003-.006-.002-.005a1.401 1.401 0 0 1-.096-.37 1.432 1.432 0 0 1 1.31-1.586c.414-.028.808.119 1.1.408a.608.608 0 0 0 1.011-.225 2.072 2.072 0 0 1 3.503-.706.61.61 0 0 0 1.028-.189c.205-.556.741-.93 1.334-.93.622 0 1.178.413 1.359 1.007a.633.633 0 0 0 .333.399c.265.121.565.04.735-.178a2.06 2.06 0 0 1 1.635-.801c.782 0 1.488.44 1.84 1.12a2.692 2.692 0 0 0-.315.705c-.229.831.021 1.666.705 2.349a.605.605 0 0 0 .853.006c.244-.237.224-.642-.014-.886-.351-.36-.476-.725-.381-1.113a1.262 1.262 0 0 1 .72-.855 1.43 1.43 0 0 1 .716-.108 1.428 1.428 0 0 1 1.267 1.414c0 .184-.036.364-.105.535a.607.607 0 0 0 .509.838 2.084 2.084 0 0 1 1.887 2.063c0 .434-.137.852-.386 1.201z"/><path d="M16.329 3.896c-.468 0-.915.125-1.305.359a2.232 2.232 0 0 0-1.481-.567c-1.229 0-2.228.999-2.228 2.228s.999 2.228 2.228 2.228a.608.608 0 1 0 0-1.216 1.014 1.014 0 0 1 0-2.026c.361 0 .687.187.872.5a.607.607 0 0 0 .96.113 1.33 1.33 0 0 1 2.284.924.608.608 0 1 0 1.216 0 2.547 2.547 0 0 0-2.544-2.544z"/></symbol></defs></svg>