<svg aria-hidden="true" style="position: absolute; width: 0; height: 0; overflow: hidden;" version="1.1" xmlns="http://www.w3.org/2000/svg" xmlns:xlink="http://www.w3.org/1999/xlink">
<defs>
<symbol id="search" viewBox="0 0 32 32">
  <path fill="none" style="stroke: var(--color1, #fff)" stroke-width="2.6667" d="M14.667 25.333c5.891 0 10.667-4.776 10.667-10.667s-4.776-10.667-10.667-10.667c-5.891 0-10.667 4.776-10.667 10.667s4.776 10.667 10.667 10.667z"></path>
  <path fill="none" style="stroke: var(--color1, #fff)" stroke-width="2.6667" d="M28 28.001l-5.8-5.8"></path>
</symbol>
<symbol id="logo" viewBox="0 0 32 32">
  <path fill="none" style="stroke: var(--color2, #818181)" stroke-width="2.6667" d="M26.427 2.667h-20.853c-1.605 0-2.907 1.301-2.907 2.907v20.853c0 1.605 1.301 2.907 2.907 2.907h20.853c1.605 0 2.907-1.301 2.907-2.907v-20.853c0-1.605-1.301-2.907-2.907-2.907z"></path>
  <path fill="none" style="stroke: var(--color2, #818181)" stroke-width="2.6667" d="M9.333 2.667v26.667"></path>
  <path fill="none" style="stroke: var(--color2, #818181)" stroke-width="2.6667" d="M22.667 2.667v26.667"></path>
  <path fill="none" style="stroke: var(--color2, #818181)" stroke-width="2.6667" d="M2.667 16h26.667"></path>
  <path fill="none" style="stroke: var(--color2, #818181)" stroke-width="2.6667" d="M2.667 9.333h6.667"></path>
  <path fill="none" style="stroke: var(--color2, #818181)" stroke-width="2.6667" d="M2.667 22.667h6.667"></path>
  <path fill="none" style="stroke: var(--color2, #818181)" stroke-width="2.6667" d="M22.667 22.667h6.667"></path>
  <path fill="none" style="stroke: var(--color2, #818181)" stroke-width="2.6667" d="M22.667 9.333h6.667"></path>
</symbol>
<symbol id="modal-close" viewBox="0 0 34 34">
  <path
    d="M23.733 10.304 22.229 8.8l-5.963 5.963L10.303 8.8l-1.504 1.504 5.963 5.963-5.963 5.963 1.504 1.504 5.963-5.963 5.963 5.963 1.504-1.504-5.963-5.963 5.963-5.963z" />
</symbol>

<symbol id="popcorn-bucket" viewBox="0 0 32 32">
  <path d="M26.573 4.572c0.011-0.099 0.017-0.198 0.017-0.298 0-1.453-1.182-2.635-2.635-2.635-0.428 0-0.84 0.101-1.21 0.292-0.596-0.922-1.628-1.504-2.762-1.504-0.713 0-1.39 0.226-1.948 0.638-0.489-0.654-1.269-1.065-2.114-1.065-0.813 0-1.569 0.379-2.061 0.994-0.539-0.366-1.181-0.567-1.845-0.567-1.133 0-2.165 0.581-2.761 1.504-0.37-0.191-0.782-0.293-1.209-0.293-1.453 0-2.635 1.182-2.635 2.635 0 0.1 0.005 0.2 0.017 0.298-1.354 0.415-2.307 1.663-2.307 3.139 0 0.739 0.247 1.448 0.699 2.025l2.688 21.731c0.038 0.304 0.296 0.533 0.603 0.533h17.78c0.307 0 0.565-0.229 0.603-0.533l2.688-21.731c0.452-0.577 0.7-1.286 0.7-2.025-0-1.476-0.953-2.724-2.307-3.139zM7.647 30.785l-2.555-20.658h2.798l1.664 20.658h-1.906zM10.772 30.785l-1.664-20.658h3.467l0.198 6.537c-1.073 0.915-1.755 2.275-1.755 3.792 0 1.625 0.783 3.071 1.991 3.981l0.192 6.348h-2.427zM17.584 30.785h-3.169l-0.171-5.667c0.546 0.206 1.138 0.32 1.756 0.32s1.21-0.114 1.756-0.32l-0.172 5.667zM16 24.223c-2.077 0-3.767-1.69-3.767-3.767s1.69-3.767 3.767-3.767 3.767 1.69 3.767 3.767-1.69 3.767-3.767 3.767zM13.791 10.127h4.418l-0.175 5.783c-0.622-0.279-1.31-0.436-2.035-0.436s-1.413 0.157-2.034 0.436l-0.175-5.783zM18.8 30.785l0.192-6.348c1.208-0.91 1.99-2.356 1.99-3.981 0-1.517-0.682-2.877-1.755-3.791l0.198-6.538h3.466l-1.664 20.658h-2.428zM24.353 30.785h-1.906l1.664-20.658h2.798l-2.555 20.658zM27.279 8.911h-22.558c-0.249-0.349-0.386-0.767-0.386-1.201 0-0.952 0.628-1.753 1.512-1.995 0.321 0.459 0.896 0.943 1.741 0.943 0.088 0 0.179-0.005 0.274-0.016 0.318-0.038 0.573-0.302 0.564-0.622-0.011-0.367-0.334-0.634-0.688-0.587-0.682 0.091-0.954-0.489-1.002-0.609-0.001-0.002-0.002-0.004-0.003-0.006s-0.001-0.004-0.002-0.005c-0.049-0.119-0.081-0.243-0.096-0.37-0.093-0.797 0.509-1.531 1.31-1.586 0.414-0.028 0.808 0.119 1.1 0.408 0.114 0.112 0.266 0.183 0.425 0.185 0.27 0.004 0.502-0.166 0.586-0.41 0.287-0.836 1.075-1.398 1.959-1.398 0.589 0 1.152 0.252 1.544 0.692 0.108 0.121 0.261 0.199 0.423 0.207 0.273 0.014 0.514-0.151 0.605-0.396 0.205-0.556 0.741-0.93 1.334-0.93 0.622 0 1.178 0.413 1.359 1.007 0.053 0.173 0.168 0.324 0.333 0.399 0.265 0.121 0.565 0.040 0.735-0.178 0.396-0.509 0.992-0.801 1.635-0.801 0.782 0 1.488 0.44 1.84 1.12-0.112 0.178-0.235 0.418-0.315 0.705-0.229 0.831 0.021 1.666 0.705 2.349 0.119 0.119 0.274 0.178 0.43 0.178 0.153 0 0.306-0.057 0.423-0.172 0.244-0.237 0.224-0.642-0.014-0.886-0.351-0.36-0.476-0.725-0.381-1.113 0.010-0.042 0.023-0.083 0.036-0.121 0.116-0.327 0.365-0.596 0.684-0.734 0.22-0.095 0.465-0.134 0.716-0.108 0.715 0.074 1.268 0.695 1.267 1.414-0 0.184-0.036 0.364-0.105 0.535-0.055 0.134-0.062 0.285-0.016 0.422 0.078 0.236 0.286 0.395 0.525 0.416 1.058 0.093 1.887 0.999 1.887 2.063-0 0.434-0.137 0.852-0.386 1.201z"></path>
  <path d="M16.329 3.896c-0.468 0-0.915 0.125-1.305 0.359-0.403-0.359-0.93-0.567-1.481-0.567-1.229 0-2.228 0.999-2.228 2.228s0.999 2.228 2.228 2.228c0.336 0 0.608-0.272 0.608-0.608s-0.272-0.608-0.608-0.608c-0.558 0-1.013-0.454-1.013-1.013s0.454-1.013 1.013-1.013c0.361 0 0.687 0.187 0.872 0.5 0.096 0.163 0.264 0.272 0.452 0.294s0.376-0.045 0.508-0.181c0.253-0.261 0.592-0.405 0.955-0.405 0.733 0 1.329 0.596 1.329 1.329 0 0.336 0.272 0.608 0.608 0.608s0.608-0.272 0.608-0.608c0-1.403-1.141-2.544-2.544-2.544z"></path>
</symbol>

<symbol id="popcorn" viewBox="0 0 29 32">
  <path d="M21.221 0.116c-0.474 0.164-1.073 0.812-1.218 1.305-0.271 0.976-0.058 2.088 0.512 2.697 0.222 0.232 0.251 0.319 0.145 0.358-0.077 0.029-0.271 0.309-0.416 0.619-0.251 0.493-0.28 0.667-0.28 1.479s0.029 0.976 0.261 1.411c0.59 1.121 1.334 1.624 2.398 1.624 0.918 0 1.653-0.309 2.33-1.005 0.628-0.628 1.247-1.798 1.247-2.349 0-0.338 0-0.338 0.425-0.338 1.247 0.019 2.601-1.721 2.282-2.91-0.116-0.445-0.59-1.121-0.889-1.276-0.126-0.058-0.329-0.242-0.445-0.396-0.358-0.435-0.938-0.686-1.721-0.735-0.86-0.058-1.556 0.106-2.069 0.474l-0.387 0.28-0.135-0.28c-0.213-0.396-0.773-0.851-1.189-0.967-0.435-0.126-0.474-0.126-0.851 0.010zM22.487 0.532c0.193 0.145 0.464 0.454 0.599 0.686 0.28 0.454 0.454 0.532 0.551 0.242 0.029-0.106 0.261-0.29 0.512-0.416 0.377-0.184 0.609-0.222 1.373-0.222 1.044 0 1.556 0.193 1.934 0.725 0.116 0.155 0.261 0.29 0.338 0.29 0.174 0 0.715 0.638 0.889 1.054 0.184 0.425 0.097 1.005-0.213 1.508-0.126 0.213-0.242 0.348-0.242 0.3 0-0.058-0.126 0.029-0.28 0.174-0.164 0.155-0.522 0.358-0.802 0.454-0.329 0.116-0.425 0.174-0.28 0.184 0.126 0 0.474-0.135 0.764-0.3 0.29-0.155 0.493-0.242 0.454-0.184-0.029 0.058-0.29 0.232-0.561 0.387-0.377 0.222-0.628 0.29-1.005 0.29h-0.512v0.425c0 0.648-0.638 1.847-1.305 2.456-1.189 1.083-2.794 1.15-3.741 0.145-0.145-0.145-0.377-0.532-0.532-0.851-0.232-0.493-0.271-0.696-0.261-1.353 0.010-0.667 0.048-0.86 0.319-1.382 0.164-0.329 0.348-0.599 0.396-0.599 0.058 0 0.039 0.097-0.039 0.213-0.213 0.329-0.541 1.392-0.532 1.692 0.010 0.203 0.029 0.174 0.097-0.145 0.097-0.493 0.474-1.556 0.58-1.614 0.039-0.029 0.232 0.039 0.425 0.155s0.377 0.174 0.416 0.135c0.039-0.039 0.019-0.097-0.039-0.116-0.358-0.126-1.034-0.648-1.237-0.967-0.377-0.58-0.561-1.402-0.445-2.088 0.213-1.344 1.431-2.001 2.378-1.276z"></path>
  <path d="M24.643 1.044c-0.425 0.155-1.083 0.561-0.754 0.464 0.087-0.019 0.203 0 0.251 0.048 0.058 0.058 0.242 0.029 0.483-0.087 0.348-0.155 0.377-0.193 0.242-0.28-0.145-0.106-0.145-0.116 0.048-0.116 0.116-0.010 0.242-0.058 0.271-0.106 0.077-0.126-0.010-0.116-0.541 0.077z"></path>
  <path d="M20.457 1.779c-0.039 0.203-0.048 0.396-0.019 0.425s0.058-0.058 0.068-0.184l0.010-0.232 0.077 0.242c0.048 0.145 0.077 0.174 0.087 0.077 0.010-0.087 0.039-0.232 0.077-0.329 0.039-0.106 0.029-0.145-0.048-0.106-0.058 0.039-0.116-0.010-0.135-0.097-0.019-0.097-0.068-0.010-0.116 0.203z"></path>
  <path d="M26.837 1.827c-0.174 0.068-0.174 0.077-0.019 0.135 0.271 0.106 0.416 0.077 0.483-0.077 0.058-0.155-0.145-0.184-0.464-0.058z"></path>
  <path d="M23.657 2.388c-0.039 0.029-0.068 0.338-0.068 0.677 0 0.406-0.058 0.696-0.155 0.851-0.087 0.135-0.135 0.3-0.106 0.377 0.087 0.213 0.59 0.28 0.967 0.116 0.319-0.126 0.358-0.126 0.512 0.048 0.106 0.116 0.271 0.184 0.416 0.164 0.164-0.019 0.242 0.019 0.232 0.097-0.029 0.135 0.213 0.145 0.503 0.019 0.164-0.068 0.145-0.087-0.126-0.087-0.28-0.010-0.309-0.029-0.251-0.242 0.029-0.135-0.010-0.358-0.097-0.522s-0.155-0.406-0.155-0.532c0-0.271-0.116-0.387-0.561-0.532-0.174-0.058-0.435-0.193-0.57-0.309-0.251-0.203-0.435-0.242-0.541-0.126zM24.15 2.755c0.116 0.087 0.367 0.213 0.561 0.28 0.309 0.106 0.377 0.184 0.474 0.551 0.068 0.232 0.135 0.483 0.155 0.561s-0.039 0.164-0.135 0.184c-0.213 0.048-0.551-0.242-0.551-0.454 0.010-0.106 0.058-0.077 0.155 0.087 0.155 0.242 0.145 0.232-0.077-0.435-0.135-0.377-0.271-0.532-0.213-0.232 0.029 0.193 0.019 0.184-0.097-0.058-0.116-0.232-0.145-0.251-0.155-0.097-0.010 0.174-0.019 0.164-0.106-0.039-0.068-0.164-0.126-0.203-0.193-0.135-0.077 0.077-0.048 0.271 0.068 0.657 0.135 0.425 0.193 0.512 0.251 0.367 0.068-0.155 0.077-0.155 0.048 0.019-0.019 0.145-0.106 0.193-0.387 0.213-0.367 0.029-0.416-0.019-0.261-0.261 0.087-0.126 0.106-0.126 0.203 0 0.087 0.116 0.087 0.106 0.029-0.048-0.097-0.261-0.145-1.305-0.058-1.305 0.039 0 0.164 0.068 0.29 0.145zM24.556 3.635c0-0.106 0.019-0.164 0.048-0.135 0.039 0.029 0.029 0.184-0.010 0.329l-0.068 0.28-0.126-0.29c-0.174-0.387-0.155-0.657 0.010-0.29 0.097 0.213 0.135 0.242 0.145 0.106z"></path>
  <path d="M20.302 3.074c0 0.164 0.783 1.083 1.063 1.257 0.135 0.077 0.087 0.010-0.106-0.155-0.203-0.174-0.493-0.512-0.657-0.764-0.164-0.242-0.3-0.396-0.3-0.338z"></path>
  <path d="M21.172 3.451c0 0.048 0.145 0.213 0.319 0.377 0.164 0.155 0.251 0.213 0.193 0.135-0.213-0.232-0.135-0.329 0.097-0.135l0.213 0.184-0.184-0.222c-0.106-0.116-0.203-0.193-0.232-0.164s-0.135-0.019-0.232-0.116c-0.097-0.087-0.174-0.116-0.174-0.058z"></path>
  <path d="M23.811 5.172c0 0.087 0.106 0.116 0.3 0.097 0.164-0.010 0.213 0 0.106 0.019-0.387 0.087-0.377 0.222 0.019 0.222 0.3 0 0.396-0.039 0.377-0.145-0.029-0.193-0.058-0.203-0.454-0.271-0.251-0.039-0.348-0.019-0.348 0.077z"></path>
  <path d="M20.843 5.269c-0.029 0.077-0.029 0.29-0.010 0.464 0.039 0.251 0.029 0.271-0.039 0.116-0.077-0.145-0.087-0.087-0.048 0.242 0.029 0.319 0.019 0.387-0.048 0.242-0.106-0.213-0.145-0.058-0.048 0.184 0.097 0.261 0.203 0.174 0.261-0.213 0.029-0.193 0.087-0.464 0.126-0.59 0.048-0.174 0.039-0.213-0.058-0.155s-0.106 0.019-0.058-0.184c0.068-0.271 0.019-0.348-0.077-0.106z"></path>
  <path d="M23.85 5.791c0.039 0.164 0.126 0.203 0.474 0.203 0.309 0 0.425-0.039 0.425-0.145 0-0.097-0.097-0.145-0.329-0.145-0.184 0-0.396-0.029-0.474-0.058-0.116-0.039-0.135 0-0.097 0.145z"></path>
  <path d="M25.629 6.255c-0.010 0.116-0.203 0.59-0.445 1.044-0.464 0.889-0.445 1.054 0.029 0.213 0.338-0.59 0.541-1.179 0.474-1.353-0.029-0.058-0.058-0.019-0.058 0.097z"></path>
  <path d="M25.136 6.729c-0.135 0.377-0.319 0.735-0.242 0.493 0.029-0.106 0.068-0.3 0.097-0.435l0.048-0.261-0.106 0.242c-0.068 0.135-0.126 0.416-0.135 0.628l-0.019 0.387 0.28-0.609c0.164-0.338 0.271-0.638 0.232-0.667-0.029-0.029-0.097 0.068-0.155 0.222z"></path>
  <path d="M23.173 8.575c-0.145 0.145-0.048 0.222 0.251 0.213l0.309-0.019-0.58-0.097 0.29-0.068c0.28-0.068 0.28-0.077 0.039-0.087-0.135 0-0.28 0.019-0.309 0.058z"></path>
  <path d="M22.97 8.904c0.019 0.039-0.039 0.097-0.126 0.116-0.097 0.029 0.010 0.048 0.232 0.058 0.493 0.010 0.638-0.145 0.184-0.203-0.184-0.019-0.319-0.010-0.29 0.029z"></path>
  <path d="M22.323 9.213c0.039 0.048 0.309 0.068 0.599 0.048l0.522-0.029-0.599-0.048c-0.329-0.029-0.561-0.010-0.522 0.029z"></path>
  <path d="M12.259 0.435c-0.145 0.077-0.28 0.232-0.319 0.338-0.048 0.155-0.097 0.174-0.242 0.097-0.696-0.367-1.856 0.309-2.137 1.257-0.097 0.3-0.087 0.464 0.039 0.822 0.145 0.445 0.135 0.464-0.097 0.812-0.213 0.309-0.232 0.416-0.184 0.918 0.097 0.947 0.638 1.663 1.537 2.040 0.725 0.3 1.827 0.106 2.726-0.493 0.483-0.319 0.918-0.909 0.918-1.237 0-0.116 0.106-0.155 0.474-0.155 1.431 0 2.204-1.005 1.663-2.175-0.097-0.213-0.28-0.483-0.406-0.599-0.367-0.338-1.112-0.628-1.547-0.599-0.358 0.029-0.387 0.010-0.59-0.396-0.358-0.686-1.189-0.976-1.837-0.628zM13.448 0.706c0.28 0.184 0.648 0.725 0.667 0.957 0 0.126-0.271 0.087-0.309-0.039-0.058-0.164-0.541 0.048-0.628 0.261-0.068 0.203 0.029 0.3 0.184 0.174 0.068-0.058 0.251-0.087 0.416-0.068 0.222 0.019 0.251 0.010 0.145-0.068s-0.068-0.087 0.145-0.048c0.213 0.048 0.251 0.039 0.145-0.039-0.106-0.068 0.029-0.097 0.493-0.097 0.541 0 0.696 0.039 1.044 0.271 0.483 0.329 0.628 0.522 0.773 1.034 0.087 0.329 0.077 0.445-0.097 0.802-0.116 0.222-0.329 0.474-0.474 0.551-0.396 0.203-1.131 0.348-1.411 0.28-0.358-0.087-0.097-0.232 0.3-0.164 0.174 0.029 0.338 0.010 0.367-0.029 0.058-0.106-0.667-0.106-0.986 0-0.174 0.058-0.213 0.048-0.155-0.048 0.048-0.077 0.048-0.106 0-0.068-0.039 0.039-0.155 0.029-0.261-0.029s-0.213-0.077-0.242-0.058c-0.029 0.029 0.145 0.145 0.377 0.271 0.532 0.261 0.512 0.251 0.367 0.425-0.068 0.077-0.087 0.145-0.058 0.145 0.174 0-0.329 0.638-0.706 0.899-0.232 0.155-0.396 0.242-0.358 0.184 0.039-0.077 0.019-0.097-0.068-0.058-0.077 0.029-0.174 0.010-0.213-0.048-0.029-0.058 0-0.106 0.068-0.106 0.087 0 0.087-0.029-0.019-0.097-0.116-0.077-0.116-0.097-0.010-0.097 0.077 0 0.116-0.019 0.087-0.048s-0.184 0.010-0.358 0.077l-0.3 0.126 0.358 0.174 0.367 0.174-0.271 0.135c-0.145 0.077-0.541 0.164-0.889 0.203-0.551 0.048-0.686 0.029-1.16-0.213-0.648-0.319-1.054-0.822-1.199-1.508-0.135-0.628-0.135-0.686 0.039-0.918 0.145-0.184 0.145-0.184 0.087 0.010-0.048 0.155-0.039 0.164 0.039 0.048 0.058-0.077 0.077-0.174 0.048-0.222-0.029-0.039 0.029-0.164 0.116-0.261 0.145-0.164 0.145-0.203 0.010-0.474-0.367-0.706-0.068-1.528 0.715-1.924 0.735-0.367 1.15-0.251 1.17 0.309 0.010 0.338 0.164 0.802 0.174 0.522 0.010-0.087 0.077-0.203 0.164-0.251 0.106-0.058 0.145-0.164 0.106-0.3-0.029-0.106-0.010-0.184 0.039-0.145 0.126 0.077 0.106-0.039-0.058-0.29-0.116-0.184-0.126-0.242-0.029-0.319 0.358-0.28 0.831-0.28 1.247 0z"></path>
  <path d="M11.582 1.692c-0.058 0.503-0.048 0.58 0.087 0.522 0.039-0.019 0.058-0.261 0.029-0.522l-0.048-0.483-0.068 0.483z"></path>
  <path d="M14.792 1.934c0.116 0.087 0.087 0.106-0.145 0.058-0.155-0.029-0.232-0.029-0.164 0 0.058 0.029 0.097 0.087 0.077 0.126-0.048 0.077 0.203 0.116 0.754 0.116 0.28 0.010 0.348 0.029 0.242 0.106s-0.097 0.087 0.039 0.039c0.097-0.029 0.203-0.058 0.232-0.058 0.174 0-0.338-0.329-0.541-0.348-0.135-0.010-0.338-0.048-0.445-0.087-0.164-0.058-0.174-0.048-0.048 0.048z"></path>
  <path d="M10.596 3.558c-0.097 0.28 0.087 0.812 0.348 1.044 0.135 0.116 0.174 0.126 0.116 0.039-0.039-0.077-0.087-0.193-0.097-0.242 0-0.058-0.019-0.164-0.029-0.242-0.010-0.126-0.019-0.126-0.116 0-0.077 0.116-0.087 0.106-0.048-0.048 0.029-0.106 0.019-0.329-0.029-0.483-0.068-0.28-0.077-0.28-0.145-0.068z"></path>
  <path d="M9.774 4.35c0 0.213 0.164 0.57 0.174 0.387 0.010-0.126 0.019-0.126 0.106 0s0.097 0.126 0.097 0c0-0.077-0.048-0.213-0.097-0.29-0.087-0.126-0.097-0.126-0.106 0 0 0.097-0.029 0.077-0.087-0.048-0.048-0.126-0.087-0.135-0.087-0.048z"></path>
  <path d="M13.825 5.172c-0.232 0.242-0.155 0.348 0.087 0.116 0.106-0.097 0.106-0.077 0.010 0.116-0.077 0.145-0.077 0.203-0.010 0.164 0.058-0.039 0.155-0.155 0.213-0.271 0.087-0.155 0.077-0.184-0.019-0.126-0.087 0.058-0.106 0.029-0.058-0.077 0.087-0.222 0.048-0.203-0.222 0.077z"></path>
  <path d="M12.423 6.236l0.29 0.145-0.338-0.058c-0.28-0.039-0.309-0.029-0.164 0.058 0.097 0.068 0.29 0.087 0.425 0.048 0.232-0.058 0.242-0.068 0.068-0.193-0.106-0.077-0.271-0.135-0.377-0.135-0.145 0-0.126 0.029 0.097 0.135z"></path>
  <path d="M11.311 6.477c0.135 0.087 0.957 0.145 0.86 0.058-0.019-0.019-0.251-0.058-0.522-0.097-0.329-0.039-0.435-0.029-0.338 0.039z"></path>
  <path d="M4.679 8.585c-0.899 0.309-1.218 0.657-1.344 1.45-0.019 0.145-0.068 0.425-0.097 0.628-0.048 0.319-0.077 0.348-0.242 0.261-0.3-0.155-0.87-0.106-1.218 0.106-0.474 0.29-1.063 0.996-1.402 1.682-0.242 0.493-0.3 0.725-0.309 1.334-0.010 0.648 0.019 0.764 0.213 0.976 0.116 0.126 0.406 0.3 0.648 0.396 0.232 0.087 0.425 0.174 0.425 0.193s-0.145 0.242-0.319 0.512c-0.396 0.58-0.648 1.518-0.648 2.407 0 0.822 0.358 1.624 0.986 2.233 0.483 0.464 0.851 0.599 1.653 0.599 0.638 0 1.121-0.203 1.566-0.677 0.271-0.29 0.29-0.338 0.261-1.025-0.019-0.396-0.010-0.715 0.019-0.715 0.019 0 0.126 0.145 0.232 0.319 0.367 0.638 1.402 0.841 2.214 0.445 0.503-0.242 1.044-0.918 1.199-1.479 0.135-0.503-0.097-1.595-0.454-2.117-0.232-0.358-0.851-0.744-1.16-0.744-0.116 0-0.068-0.097 0.184-0.377 0.416-0.454 0.551-0.889 0.454-1.47-0.087-0.57-0.338-1.025-0.686-1.237l-0.28-0.174 0.203-0.184c0.367-0.329 0.57-0.86 0.57-1.46-0.010-0.967-0.135-1.392-0.522-1.74-0.319-0.3-0.396-0.319-0.996-0.319-0.367 0.010-0.88 0.077-1.15 0.174zM6.671 8.875c0.203 0.203 0.261 0.348 0.232 0.561-0.039 0.232-0.029 0.251 0.048 0.087s0.097-0.135 0.097 0.164c0.010 0.232-0.039 0.367-0.106 0.377-0.097 0-0.097 0.019 0 0.058 0.174 0.068 0.145 0.996-0.039 1.286-0.251 0.367-0.841 0.967-0.957 0.967-0.048 0 0-0.077 0.106-0.174 0.232-0.184 0.812-0.967 0.812-1.092 0-0.039-0.087-0.058-0.184-0.039-0.145 0.029-0.174-0.010-0.145-0.126 0.048-0.135 0.019-0.126-0.097 0.019-0.203 0.251-0.193 0.348 0.029 0.3 0.135-0.029 0.174 0.010 0.135 0.116-0.029 0.077-0.087 0.106-0.116 0.058-0.097-0.135-0.28-0.126-0.406 0.029-0.077 0.097-0.087 0.174-0.019 0.242 0.077 0.077 0.126 0.068 0.174-0.019 0.058-0.077 0.039-0.097-0.058-0.039-0.077 0.048-0.097 0.039-0.058 0 0.087-0.106 0.358-0.155 0.358-0.068 0 0.029-0.135 0.203-0.309 0.377-0.271 0.28-0.464 0.706-0.309 0.706 0.029 0 0.184-0.097 0.348-0.203 0.29-0.213 0.29-0.213 0.541-0.019 0.145 0.106 0.338 0.338 0.425 0.522 0.193 0.358 0.242 1.247 0.068 1.247-0.058 0-0.077 0.077-0.039 0.184 0.039 0.135-0.077 0.29-0.435 0.619-0.261 0.242-0.483 0.464-0.483 0.493s0.184 0.058 0.396 0.058c0.773 0 1.276 0.532 1.566 1.672 0.135 0.493 0.135 0.628 0.010 1.025-0.193 0.667-0.909 1.324-1.547 1.421-0.841 0.126-1.295-0.155-1.943-1.179-0.097-0.155-0.116-0.010-0.116 0.764-0.010 0.522-0.058 1.034-0.116 1.141s-0.3 0.329-0.551 0.483c-0.744 0.474-1.808 0.348-2.465-0.28-0.899-0.86-1.15-2.030-0.706-3.345 0.145-0.416 0.396-0.947 0.551-1.189 0.358-0.512 0.329-0.551-0.493-0.967-0.435-0.222-0.541-0.329-0.58-0.561-0.077-0.445 0.048-1.208 0.3-1.74 0.3-0.648 1.286-1.634 1.721-1.721 0.406-0.087 0.822 0.106 0.86 0.396 0.058 0.377 0.213 0.222 0.213-0.213 0-0.561 0.155-1.353 0.348-1.76 0.251-0.522 1.112-0.889 2.098-0.899 0.493-0.010 0.599 0.019 0.841 0.261z"></path>
  <path d="M3.819 10.76c0.039 0.184 0.019 0.251-0.048 0.213-0.058-0.039-0.097 0.058-0.097 0.232 0 0.435 0.164 0.445 0.232 0.019 0.029-0.213 0.087-0.464 0.116-0.561 0.039-0.126 0.029-0.145-0.039-0.039-0.077 0.106-0.106 0.106-0.155 0-0.029-0.077-0.039-0.010-0.010 0.135z"></path>
  <path d="M0.87 12.781c-0.222 0.367-0.483 1.179-0.474 1.47 0 0.116 0.058-0.019 0.126-0.28 0.068-0.271 0.232-0.715 0.377-0.996 0.28-0.561 0.261-0.677-0.029-0.193z"></path>
  <path d="M6.932 12.819c-0.077 0.135 0.029 0.522 0.135 0.522s0.106-0.164 0-0.425c-0.039-0.106-0.097-0.145-0.135-0.097z"></path>
  <path d="M3.925 13.274c-0.561 0.725-0.947 2.011-0.638 2.117 0.068 0.019 0.068 0.126 0 0.329-0.058 0.174-0.097 0.541-0.077 0.822l0.029 0.522 0.338 0.010c0.184 0 0.454 0.029 0.59 0.068 0.464 0.116 0.793-0.493 0.909-1.663 0.029-0.396 0.145-0.938 0.251-1.208 0.184-0.464 0.193-0.493 0.029-0.609-0.097-0.068-0.203-0.126-0.251-0.126-0.039 0-0.077-0.106-0.077-0.232 0-0.251-0.155-0.348-0.58-0.348-0.203 0-0.348 0.087-0.522 0.319zM4.699 13.129c0.058 0.039 0.126 0.135 0.164 0.222 0.039 0.135 0 0.164-0.232 0.145-0.155-0.010-0.28 0.010-0.28 0.039 0 0.126 0.377 0.406 0.474 0.348 0.048-0.039 0.116-0.019 0.145 0.029 0.039 0.048 0.010 0.126-0.048 0.164-0.077 0.039-0.087 0.029-0.048-0.039s0.048-0.116 0.019-0.116c-0.135 0-0.135 0.184 0.010 0.3 0.135 0.116 0.155 0.116 0.077-0.010-0.058-0.116-0.048-0.116 0.048-0.029 0.087 0.077 0.097 0.193 0.019 0.435-0.058 0.174-0.126 0.58-0.155 0.909-0.029 0.319-0.116 0.715-0.203 0.87-0.077 0.155-0.145 0.329-0.145 0.396 0 0.232-0.213 0.242-0.445 0.019-0.126-0.116-0.232-0.184-0.232-0.135s-0.048 0.039-0.116-0.029c-0.164-0.164-0.319-0.145-0.174 0.029 0.068 0.077 0.097 0.145 0.058 0.145-0.029 0-0.087 0-0.126 0-0.048 0-0.077-0.039-0.077-0.087s-0.029-0.116-0.058-0.145c-0.029-0.029-0.019-0.309 0.029-0.609 0.048-0.367 0.039-0.628-0.029-0.764-0.087-0.164-0.058-0.329 0.135-0.802 0.28-0.696 0.638-1.247 0.841-1.305 0.232-0.058 0.232-0.058 0.348 0.019z"></path>
  <path d="M0.744 13.776c-0.097 0.261-0.164 0.541-0.155 0.619 0 0.087 0.068-0.058 0.145-0.319 0.087-0.251 0.164-0.445 0.193-0.416s-0.019 0.29-0.106 0.599c-0.087 0.3-0.145 0.561-0.126 0.59 0.029 0.019 0.126-0.213 0.213-0.512 0.116-0.396 0.145-0.628 0.077-0.793-0.077-0.222-0.097-0.213-0.242 0.232z"></path>
  <path d="M5.578 14.328c0.039 0.184 0.029 0.193-0.058 0.077-0.097-0.126-0.106-0.126-0.106 0 0 0.077-0.029 0.251-0.048 0.387-0.048 0.213-0.039 0.213 0.039 0.048 0.068-0.135 0.097-0.155 0.106-0.048 0.010 0.077 0.058 0.039 0.097-0.097 0.106-0.338 0.116-0.58 0.010-0.58-0.048 0-0.068 0.097-0.039 0.213z"></path>
  <path d="M1.798 14.54c-0.029 0.126-0.087 0.309-0.116 0.416-0.048 0.116-0.039 0.145 0.029 0.077 0.145-0.135 0.329-0.725 0.232-0.725-0.048 0-0.116 0.106-0.145 0.232z"></path>
  <path d="M6.825 14.453c-0.029 0.077-0.106 0.135-0.174 0.126-0.058-0.019-0.135 0.058-0.155 0.164-0.039 0.193-0.039 0.193 0.164 0.010 0.106-0.106 0.203-0.135 0.203-0.077s-0.116 0.193-0.251 0.3c-0.145 0.116-0.213 0.203-0.155 0.203 0.145 0 0.706-0.677 0.648-0.783-0.087-0.135-0.213-0.106-0.28 0.058z"></path>
  <path d="M6.613 15.807c0.203 0.068 0.532 0.261 0.735 0.425 0.406 0.329 0.58 0.396 0.377 0.145-0.193-0.232-1.073-0.715-1.295-0.706-0.116 0-0.039 0.058 0.184 0.135z"></path>
  <path d="M6.961 16.251c0.203 0.164 0.213 0.193 0.048 0.145-0.116-0.039-0.048 0.068 0.193 0.271 0.387 0.338 0.657 0.464 0.445 0.222-0.058-0.077-0.077-0.155-0.048-0.184s-0.126-0.193-0.329-0.358c-0.425-0.329-0.696-0.416-0.309-0.097z"></path>
  <path d="M1.121 17.083c-0.193 0.396-0.348 1.228-0.329 1.798l0.010 0.503 0.116-1.257 0.087 0.609c0.039 0.329 0.126 0.628 0.174 0.657 0.068 0.039 0.068-0.077 0.019-0.358-0.048-0.232-0.077-0.57-0.077-0.744 0-0.193-0.029-0.271-0.077-0.193-0.155 0.242-0.077-0.3 0.106-0.793 0.203-0.532 0.193-0.638-0.029-0.222z"></path>
  <path d="M4.099 18.9c0 0.474 0.010 0.686 0.029 0.464s0.019-0.619 0-0.87c-0.019-0.251-0.029-0.077-0.029 0.406z"></path>
  <path d="M4.834 18.32c0 0.145 0.735 0.851 0.909 0.88 0.261 0.039 0.242-0.232-0.019-0.406-0.145-0.097-0.29-0.164-0.329-0.155-0.048 0.010-0.077-0.029-0.077-0.087s-0.058-0.087-0.116-0.058c-0.068 0.019-0.174-0.029-0.242-0.116s-0.126-0.106-0.126-0.058zM5.433 18.707c0.029-0.029 0.126 0.029 0.213 0.135 0.097 0.097 0.126 0.213 0.077 0.242s-0.213-0.087-0.367-0.251c-0.155-0.174-0.213-0.261-0.126-0.193 0.087 0.058 0.174 0.097 0.203 0.068z"></path>
  <path d="M1.208 18.514c0.029 0.097 0.087 0.367 0.116 0.599 0.029 0.261 0.106 0.416 0.184 0.416 0.174 0 0.184-0.541 0.010-0.648-0.068-0.039-0.174-0.184-0.242-0.319s-0.097-0.155-0.068-0.048z"></path>
  <path d="M3.896 19.045c0 0.348 0.019 0.483 0.039 0.309 0.019-0.164 0.019-0.454 0-0.628-0.019-0.164-0.039-0.029-0.039 0.319z"></path>
  <path d="M3.509 19.142c0 0.348 0.019 0.483 0.039 0.309 0.019-0.164 0.019-0.454 0-0.628-0.019-0.164-0.039-0.029-0.039 0.319z"></path>
  <path d="M3.703 19.094c0 0.319 0.019 0.435 0.039 0.261s0.019-0.435 0-0.58c-0.019-0.145-0.039 0-0.039 0.319z"></path>
  <path d="M19.529 10.663c-0.464 0.145-1.092 0.812-1.305 1.363l-0.174 0.454-0.232-0.222c-0.3-0.28-1.121-0.3-1.518-0.048-0.464 0.309-0.773 0.899-0.812 1.566-0.039 0.57-0.048 0.599-0.358 0.715-0.416 0.145-1.17 0.957-1.421 1.527-0.261 0.58-0.329 1.45-0.174 2.030 0.184 0.638 1.131 1.605 1.74 1.769 0.522 0.145 1.363 0 1.76-0.29 0.145-0.106 0.271-0.193 0.29-0.193s0.029 0.232 0.039 0.512c0.010 0.648 0.348 1.431 0.793 1.827 0.928 0.812 1.953 0.87 3.335 0.184 1.044-0.522 1.498-0.918 1.856-1.605 0.541-1.073 0.367-2.301-0.425-3.142l-0.358-0.377 0.483-0.242c0.822-0.406 1.092-1.015 0.793-1.75-0.203-0.474-0.638-0.667-1.46-0.677h-0.686l0.135-0.387c0.193-0.541 0.184-1.47-0.019-1.934-0.425-0.996-1.276-1.402-2.282-1.083zM20.834 10.886c0.387 0.184 0.773 0.744 0.928 1.324 0.116 0.474-0.010 1.334-0.271 1.837-0.174 0.338-0.116 0.416 0.174 0.261 0.135-0.077 0.454-0.106 0.889-0.068 0.541 0.039 0.715 0.087 0.909 0.28 0.348 0.348 0.406 0.938 0.126 1.315-0.251 0.338-1.083 0.735-1.353 0.648-0.3-0.097-0.126 0.3 0.193 0.435 0.599 0.251 1.121 1.411 1.034 2.282-0.058 0.599-0.464 1.392-0.87 1.74-0.715 0.599-2.098 1.199-2.784 1.199-0.822 0-1.634-0.541-2.011-1.344-0.203-0.435-0.251-0.667-0.232-1.218 0-0.377 0.077-0.87 0.164-1.102s0.135-0.445 0.116-0.464c-0.068-0.068-0.348 0.512-0.348 0.706 0 0.319-0.609 0.783-1.189 0.909-0.309 0.058-0.638 0.077-0.725 0.039s-0.203-0.058-0.251-0.048c-0.116 0.029-1.025-0.599-1.025-0.696 0-0.048 0.135 0.029 0.3 0.164 0.222 0.184 0.338 0.232 0.464 0.164 0.106-0.058 0.213-0.058 0.309 0.010 0.106 0.077 0.097 0.087-0.039 0.039-0.097-0.029-0.155-0.019-0.116 0.039s-0.010 0.068-0.116 0.029c-0.097-0.029-0.145-0.029-0.106 0.019 0.039 0.039 0.271 0.087 0.503 0.097 0.358 0.010 0.425-0.010 0.396-0.155s0.019-0.164 0.309-0.126c0.184 0.019 0.387 0.068 0.445 0.106 0.048 0.029 0.068 0.010 0.029-0.048-0.029-0.048-0.010-0.116 0.048-0.135s-0.010-0.087-0.155-0.155c-0.193-0.087-0.232-0.087-0.184 0 0.048 0.077 0.019 0.087-0.087 0.048-0.097-0.029-0.164-0.029-0.164 0.019 0 0.039-0.126 0.068-0.29 0.058-0.155-0.010-0.261 0.019-0.232 0.068 0.029 0.039 0.010 0.077-0.048 0.077-0.048 0-0.116-0.039-0.155-0.087-0.029-0.058-0.193-0.077-0.367-0.058-0.232 0.029-0.367-0.019-0.561-0.203-0.145-0.135-0.3-0.232-0.348-0.213-0.184 0.077-0.464-0.744-0.464-1.373 0-0.812 0.251-1.46 0.793-2.040 0.367-0.387 0.957-0.773 1.025-0.657 0.010 0.019 0.116 0.174 0.242 0.348 0.261 0.377 0.28 0.503 0.039 0.29-0.174-0.155-0.184-0.155-0.164 0.029 0.010 0.106 0.077 0.251 0.145 0.319 0.116 0.097 0.116 0.087 0.010-0.058-0.155-0.203 0.010-0.222 0.184-0.019 0.068 0.077 0.087 0.145 0.058 0.145-0.039 0-0.039 0.048-0.010 0.097 0.039 0.058 0.106 0.077 0.155 0.039 0.058-0.039 0.058-0.106-0.019-0.193-0.068-0.077-0.068-0.135-0.010-0.135 0.164 0 0.329 0.261 0.213 0.338-0.058 0.029-0.077 0.106-0.039 0.155 0.029 0.048 0.097 0.068 0.145 0.029 0.048-0.029 0.068-0.097 0.039-0.145-0.077-0.116 0.019-0.106 0.251 0.010 0.116 0.068 0.184 0.068 0.184 0.010s0.068-0.068 0.164-0.039c0.106 0.039 0.135 0.029 0.087-0.058-0.048-0.068-0.135-0.097-0.203-0.068-0.164 0.058-0.744-0.319-0.802-0.522-0.029-0.087 0.077-0.039 0.232 0.106 0.251 0.232 0.619 0.309 0.764 0.174 0.029-0.029-0.058-0.155-0.193-0.28s-0.242-0.174-0.242-0.106c0 0.068-0.048 0.087-0.116 0.048s-0.039 0.019 0.058 0.135c0.106 0.116 0.135 0.213 0.077 0.213-0.048 0-0.213-0.126-0.338-0.29-0.145-0.174-0.261-0.242-0.28-0.174-0.087 0.242-0.406-0.435-0.445-0.938-0.077-0.996 0.541-1.789 1.402-1.789 0.348 0 0.445 0.048 0.754 0.406 0.184 0.222 0.367 0.512 0.396 0.628 0.039 0.126 0.106 0.222 0.155 0.222 0.106 0 0.010-0.57-0.135-0.744-0.261-0.319 0.58-1.643 1.228-1.924 0.396-0.174 0.967-0.164 1.353 0.019z"></path>
  <path d="M18.543 11.959c-0.174 0.445-0.116 1.257 0.077 1.063 0.068-0.058 0.116-1.324 0.068-1.324-0.019 0-0.087 0.116-0.145 0.261z"></path>
  <path d="M21.491 12.955c-0.058 0.454-0.135 0.909-0.174 1.015-0.048 0.155-0.048 0.164 0.039 0.048 0.126-0.184 0.329-1.334 0.29-1.643-0.019-0.135-0.087 0.126-0.155 0.58z"></path>
  <path d="M18.011 13.361c0.164 0.309 0.348 0.551 0.387 0.561 0.097 0-0.184-0.483-0.483-0.851-0.155-0.174-0.126-0.087 0.097 0.29z"></path>
  <path d="M21.037 13.264c-0.087 0.396-0.010 0.744 0.126 0.599 0.048-0.048 0.106-0.28 0.135-0.522 0.039-0.271 0.029-0.358-0.019-0.242-0.077 0.193-0.077 0.193-0.126 0-0.029-0.145-0.068-0.097-0.116 0.164z"></path>
  <path d="M20.089 14.444c-0.242 0.367-0.406 0.445-0.986 0.445-0.348 0-0.367 0.010-0.3 0.261 0.048 0.222-0.019 0.329-0.503 0.822-0.464 0.474-0.541 0.59-0.445 0.735 0.077 0.126 0.213 0.155 0.628 0.135l0.532-0.029 0.106 0.367c0.155 0.493 0.474 0.996 0.628 0.996 0.077 0 0.29-0.271 0.493-0.609 0.222-0.387 0.512-0.725 0.793-0.928 0.425-0.3 0.435-0.319 0.28-0.493-0.126-0.135-0.145-0.271-0.097-0.609 0.058-0.387 0.039-0.454-0.135-0.551-0.116-0.058-0.28-0.28-0.358-0.493-0.193-0.464-0.358-0.474-0.638-0.048zM20.65 14.685c0.077 0.213 0.213 0.406 0.28 0.435 0.087 0.029 0.116 0.164 0.077 0.435-0.039 0.261-0.010 0.445 0.077 0.551 0.106 0.135 0.087 0.184-0.106 0.329-0.232 0.184-0.242 0.184-0.271 0-0.048-0.3-0.213-0.222-0.213 0.087 0 0.164-0.039 0.319-0.097 0.348-0.058 0.039-0.068-0.058-0.029-0.261 0.029-0.174 0.019-0.29-0.019-0.242-0.048 0.039-0.097 0.232-0.106 0.435-0.010 0.193-0.116 0.522-0.232 0.725-0.261 0.445-0.377 0.387-0.677-0.367-0.116-0.29-0.28-0.532-0.348-0.532-0.077 0-0.135-0.097-0.145-0.222-0.010-0.203-0.010-0.203-0.087 0.029l-0.077 0.242-0.010-0.271c-0.010-0.367-0.203-0.329-0.213 0.048-0.019 0.3-0.019 0.309-0.058 0.048-0.029-0.213 0.039-0.358 0.309-0.667 0.222-0.242 0.338-0.454 0.309-0.561-0.039-0.145 0.039-0.184 0.406-0.222s0.493-0.106 0.725-0.396c0.155-0.193 0.3-0.348 0.319-0.348s0.097 0.174 0.184 0.377z"></path>
  <path d="M19.77 17.092c-0.039 0.28-0.048 0.541-0.019 0.57 0.068 0.068 0.193-0.793 0.145-0.957-0.029-0.068-0.077 0.106-0.126 0.387z"></path>
  <path d="M21.588 14.521c-0.174 0.058-0.319 0.145-0.319 0.193s0.087 0.039 0.203-0.019c0.145-0.087 0.232-0.077 0.338 0.010 0.077 0.058 0.174 0.087 0.203 0.048 0.039-0.039 0.010-0.106-0.068-0.155-0.097-0.058-0.039-0.097 0.203-0.126 0.3-0.029 0.3-0.039 0.039-0.039-0.155-0.010-0.435 0.039-0.599 0.087z"></path>
  <path d="M15.507 15.749c0.077 0.126 0.735 0.503 0.735 0.416 0-0.068-0.628-0.503-0.725-0.503-0.039 0-0.039 0.039-0.010 0.087z"></path>
  <path d="M23.164 15.923c-0.039 0.039-0.261 0.077-0.493 0.077-0.242 0.010-0.464 0.039-0.493 0.077-0.087 0.087 0.029 0.358 0.164 0.358 0.077 0 0.068-0.048-0.019-0.164-0.126-0.145-0.116-0.145 0.077-0.039 0.184 0.087 0.29 0.077 0.609-0.087 0.367-0.193 0.474-0.29 0.309-0.29-0.048 0-0.116 0.029-0.155 0.068z"></path>
  <path d="M21.027 17.112c-0.155 0.106-0.251 0.193-0.213 0.193s0.029 0.087-0.029 0.193c-0.126 0.232-0.087 0.242 0.319 0.048 0.28-0.145 0.29-0.145 0.116 0-0.106 0.087-0.29 0.174-0.406 0.213-0.126 0.029-0.222 0.087-0.222 0.135 0 0.087 0.425-0.097 0.851-0.377 0.164-0.106 0.193-0.174 0.106-0.271-0.135-0.164-0.319-0.184-0.222-0.019 0.039 0.068 0.029 0.077-0.048 0.039-0.087-0.058-0.087-0.106 0-0.213 0.155-0.184 0.097-0.174-0.251 0.058z"></path>
  <path d="M22.526 17.353c0 0.029 0.068 0.155 0.145 0.28 0.145 0.222 0.106 0.59-0.058 0.483-0.116-0.068-0.116-0.048 0.068 0.483 0.087 0.251 0.174 0.435 0.203 0.406 0.029-0.019 0-0.203-0.068-0.396-0.097-0.28-0.097-0.377 0-0.464s0.116-0.077 0.068 0.048c-0.039 0.097-0.019 0.174 0.039 0.174s0.087 0.058 0.058 0.135c-0.029 0.077 0.010 0.193 0.087 0.261 0.126 0.106 0.135 0.077 0.087-0.164-0.126-0.532-0.628-1.537-0.628-1.247z"></path>
  <path d="M18.079 18.050c-0.058 0.203-0.126 0.754-0.145 1.237l-0.039 0.87 0.087-0.841c0.048-0.454 0.155-1.005 0.232-1.228 0.068-0.222 0.097-0.396 0.048-0.396-0.039 0-0.126 0.164-0.184 0.358z"></path>
  <path d="M18.137 18.871c-0.077 0.309-0.068 0.851 0.019 0.851 0.039 0 0.077-0.242 0.087-0.532 0.010-0.57-0.010-0.657-0.106-0.319z"></path>
  <path d="M18.272 19.258c0 0.126 0.048 0.29 0.097 0.367 0.068 0.106 0.097 0.048 0.097-0.222 0-0.193-0.039-0.358-0.097-0.358-0.048 0-0.097 0.097-0.097 0.213z"></path>
  <path d="M22.139 19.828c-0.126 0.077-0.116 0.106 0.029 0.222 0.106 0.087 0.135 0.155 0.068 0.184-0.058 0.029-0.058 0.048 0.010 0.029 0.135-0.019 0.222-0.416 0.106-0.483-0.039-0.029-0.135 0-0.213 0.048z"></path>
  <path d="M21.897 20.205c-0.029 0.048-0.029 0.097 0.019 0.097 0.039 0 0.010 0.048-0.068 0.106-0.116 0.077-0.097 0.087 0.077 0.039 0.29-0.087 0.271 0.010-0.048 0.193-0.222 0.126-0.232 0.145-0.048 0.097 0.29-0.087 0.271 0.010-0.048 0.184-0.155 0.077-0.222 0.145-0.174 0.155 0.058 0 0.251-0.097 0.435-0.203l0.338-0.203-0.184 0.193c-0.097 0.116-0.377 0.3-0.609 0.416s-0.406 0.222-0.377 0.251c0.058 0.058 0.996-0.445 1.131-0.609s0.029-0.329-0.184-0.271c-0.145 0.048-0.145 0.039 0.010-0.087s0.155-0.145 0.019-0.203c-0.087-0.029-0.126-0.097-0.097-0.155 0.029-0.048 0.019-0.097-0.039-0.097-0.048 0-0.126 0.039-0.155 0.097z"></path>
  <path d="M11.234 21.317c-0.416 0.193-0.541 0.309-0.696 0.648-0.203 0.454-0.232 0.889-0.106 1.45l0.087 0.367h-0.425c-0.377 0-0.483 0.048-0.851 0.425-0.561 0.551-0.773 0.967-0.706 1.373 0.048 0.29 0.029 0.329-0.261 0.425-0.174 0.058-0.503 0.261-0.725 0.445-0.367 0.319-0.396 0.387-0.396 0.812 0 0.706 0.338 1.692 0.744 2.137 0.309 0.338 0.387 0.377 0.822 0.377 0.454 0 0.474 0.010 0.406 0.213-0.261 0.841-0.222 1.054 0.29 1.508 0.406 0.358 1.015 0.541 1.537 0.474 0.435-0.058 0.677-0.251 0.851-0.667 0.116-0.28 0.135-0.29 0.609-0.242 0.831 0.077 1.257-0.155 1.905-1.034 0.309-0.416 0.348-0.706 0.145-1.112-0.145-0.261-0.135-0.271 0.222-0.425 0.493-0.222 1.131-0.686 1.305-0.967 0.222-0.329 0.396-2.417 0.261-2.939-0.242-0.88-0.996-1.353-2.030-1.257l-0.57 0.048 0.145-0.348c0.561-1.353-1.034-2.427-2.562-1.711zM12.887 21.404c0.889 0.377 1.025 1.237 0.358 2.262-0.213 0.329-0.338 0.599-0.29 0.599s0.135-0.087 0.193-0.193c0.058-0.116 0.164-0.164 0.271-0.135 0.135 0.048 0.145 0.039 0.019-0.048-0.425-0.319 0.889-0.541 1.653-0.29 0.909 0.309 1.112 0.976 0.909 2.968-0.087 0.88-0.319 1.189-1.295 1.701-0.58 0.3-0.725 0.348-1.083 0.29-0.3-0.048-0.387-0.039-0.338 0.039 0.039 0.068 0.261 0.116 0.493 0.116 0.387 0 0.425 0.019 0.532 0.329 0.135 0.416 0.039 0.638-0.561 1.295l-0.474 0.522-1.46-0.019-0.155 0.338c-0.087 0.184-0.251 0.396-0.377 0.483-0.454 0.319-1.47 0.048-1.895-0.493-0.222-0.28-0.232-0.609-0.048-1.276 0.048-0.174 0.019-0.213-0.145-0.213-0.106 0-0.203-0.048-0.203-0.097 0-0.068-0.126-0.087-0.319-0.048-0.261 0.048-0.358 0.010-0.58-0.222-0.358-0.367-0.744-1.44-0.744-2.050 0-0.425 0.039-0.503 0.319-0.715 0.174-0.135 0.474-0.309 0.667-0.396 0.319-0.126 0.387-0.126 0.706 0.010 0.193 0.077 0.406 0.126 0.464 0.106 0.068-0.029-0.010-0.097-0.174-0.164-0.696-0.271-0.802-0.696-0.348-1.315 0.802-1.092 1.382-1.189 1.75-0.28 0.116 0.29 0.251 0.532 0.3 0.532 0.116 0 0.126 0.058-0.155-0.725-0.174-0.493-0.242-0.88-0.242-1.421 0-0.648 0.029-0.773 0.242-1.025 0.425-0.512 1.392-0.735 2.011-0.464z"></path>
  <path d="M13.341 22.893c0 0.048-0.155 0.329-0.338 0.648-0.193 0.309-0.329 0.58-0.3 0.599 0.058 0.058 0.735-1.054 0.735-1.199 0-0.068-0.019-0.126-0.048-0.126s-0.048 0.039-0.048 0.077z"></path>
  <path d="M11.137 23.918c-0.155 0.348-0.145 0.435 0.029 0.213 0.106-0.145 0.145-0.155 0.145-0.048 0 0.077-0.058 0.203-0.116 0.271-0.097 0.097-0.097 0.145-0.010 0.174 0.068 0.019 0.087 0.106 0.058 0.184-0.077 0.203 0.048 0.164 0.155-0.048 0.068-0.126 0.068-0.309-0.019-0.59l-0.116-0.416-0.126 0.261z"></path>
  <path d="M14.405 23.84c0.541 0.164 0.58 0.164 0.348-0.010-0.106-0.077-0.329-0.145-0.483-0.135-0.271 0-0.261 0.019 0.135 0.145z"></path>
  <path d="M13.728 23.869c0.126 0.097 0.126 0.106 0 0.116-0.097 0-0.077 0.029 0.048 0.087 0.271 0.116 0.416 0.116 0.242-0.010-0.106-0.068-0.058-0.077 0.193-0.039 0.222 0.048 0.309 0.039 0.242-0.029-0.048-0.048-0.271-0.126-0.483-0.155-0.28-0.048-0.348-0.039-0.242 0.029z"></path>
  <path d="M13.148 24.527c0 0.077 0.068 0.203 0.145 0.28 0.126 0.135 0.145 0.116 0.145-0.135 0-0.184-0.048-0.28-0.145-0.28-0.077 0-0.145 0.068-0.145 0.135z"></path>
  <path d="M10.489 24.653c-0.077 0.251 0.184 0.696 0.377 0.619 0.116-0.048 0.106-0.116-0.068-0.406-0.106-0.193-0.213-0.367-0.222-0.387s-0.048 0.058-0.087 0.174z"></path>
  <path d="M14.289 24.904c-0.019 0.242 0 0.464 0.039 0.483 0.048 0.029 0.077-0.174 0.077-0.435 0-0.619-0.068-0.638-0.116-0.048z"></path>
  <path d="M14.53 24.962c-0.010 0.348 0.010 0.464 0.068 0.367 0.116-0.174 0.126-0.87 0.029-0.87-0.048 0-0.087 0.232-0.097 0.503z"></path>
  <path d="M14.801 24.914c-0.010 0.28 0.039 0.512 0.087 0.512 0.116 0 0.116-0.551 0-0.822-0.058-0.145-0.087-0.058-0.087 0.309z"></path>
  <path d="M15.091 25.107c0 0.406 0.029 0.503 0.087 0.367 0.116-0.271 0.116-0.918 0-0.918-0.058 0-0.097 0.242-0.087 0.551z"></path>
  <path d="M15.401 25.281c0 0.367 0.019 0.512 0.039 0.309 0.019-0.193 0.019-0.503 0-0.677-0.019-0.164-0.039-0.010-0.039 0.367z"></path>
  <path d="M15.584 25.571c0 0.512 0.019 0.706 0.077 0.58 0.106-0.242 0.106-0.793 0-1.112-0.048-0.164-0.077 0-0.077 0.532z"></path>
  <path d="M8.778 26.383c0.068 0.039 0.116 0.135 0.097 0.203s0.126 0.213 0.309 0.309c0.261 0.145 0.3 0.155 0.145 0.029-0.193-0.164-0.193-0.164 0.048-0.116 0.29 0.068 0.619-0.077 0.387-0.164-0.889-0.329-1.218-0.416-0.986-0.261z"></path>
  <path d="M14.26 27.456l-0.29 0.077 0.29 0.019c0.271 0.029 0.271 0.029 0.048 0.068-0.416 0.077-0.406 0.184 0.019 0.174 0.387-0.010 0.667-0.232 0.3-0.251-0.155 0-0.155-0.010 0.019-0.087 0.242-0.106 0.019-0.106-0.387 0z"></path>
  <path d="M14.956 27.814c-0.039 0.029-0.309 0.077-0.619 0.087-0.3 0.019-0.59 0.077-0.648 0.145-0.077 0.077-0.058 0.097 0.087 0.058 0.106-0.039 0.329-0.087 0.483-0.116 0.271-0.048 0.28-0.048 0.058 0.048-0.135 0.058-0.454 0.145-0.725 0.184-0.435 0.077-0.454 0.087-0.145 0.097 0.406 0.010 1.218-0.213 1.489-0.416 0.106-0.087 0.164-0.155 0.135-0.155s-0.087 0.029-0.116 0.068z"></path>
  <path d="M8.653 28.906c-0.193 0.087-0.193 0.087 0 0.087 0.106 0 0.367-0.039 0.58-0.077l0.387-0.087h-0.387c-0.213 0-0.474 0.029-0.58 0.077z"></path>
  <path d="M8.749 29.1l-0.387 0.068 0.338 0.010c0.184 0 0.445-0.039 0.58-0.077 0.309-0.097 0.019-0.097-0.532 0z"></path>
  <path d="M8.701 29.293l-0.435 0.068 0.387 0.010c0.213 0 0.58-0.029 0.822-0.068l0.435-0.077h-0.387c-0.213 0-0.58 0.029-0.822 0.068z"></path>
  <path d="M13.148 29.767l0.338 0.068-0.387 0.077-0.387 0.087 0.58 0.271-0.387-0.048c-0.28-0.039-0.329-0.029-0.193 0.039 0.164 0.068 0.145 0.087-0.116 0.087-0.174 0.010-0.319 0.048-0.319 0.097s0.271 0.029 0.599-0.048c0.609-0.145 0.812-0.232 0.532-0.232-0.087 0-0.184-0.048-0.213-0.097-0.039-0.068 0.029-0.077 0.203-0.039 0.184 0.048 0.242 0.039 0.193-0.048-0.039-0.058-0.010-0.106 0.058-0.116 0.251-0.010-0.271-0.174-0.551-0.164s-0.28 0.010 0.048 0.068z"></path>
  <path d="M10.199 30.647c0.164 0.106 0.358 0.193 0.435 0.193s0-0.087-0.174-0.193c-0.406-0.251-0.638-0.251-0.261 0z"></path>
  <path d="M13.003 30.511c-0.058 0.019-0.358 0.077-0.677 0.126-0.464 0.068-0.503 0.087-0.193 0.087 0.213 0 0.609-0.058 0.87-0.126 0.271-0.068 0.396-0.126 0.29-0.126s-0.242 0.019-0.29 0.039z"></path>
  <path d="M10.441 31.033c0.329 0.193 0.232 0.203-0.29 0.019-0.077-0.029-0.106-0.010-0.068 0.039 0.116 0.126 0.841 0.319 0.841 0.232 0-0.106-0.28-0.387-0.387-0.387-0.048 0-0.164-0.029-0.261-0.058s-0.019 0.039 0.164 0.155z"></path>
</symbol>

</defs>
</svg>
