<svg aria-hidden="true" style="position: absolute; width: 0; height: 0; overflow: hidden;" version="1.1" xmlns="http://www.w3.org/2000/svg" xmlns:xlink="http://www.w3.org/1999/xlink">
<defs>
<symbol id="popcorn-bucket" viewBox="0 0 32 32">
<path d="M26.573 4.572c0.011-0.099 0.017-0.198 0.017-0.298 0-1.453-1.182-2.635-2.635-2.635-0.428 0-0.84 0.101-1.21 0.292-0.596-0.922-1.628-1.504-2.762-1.504-0.713 0-1.39 0.226-1.948 0.638-0.489-0.654-1.269-1.065-2.114-1.065-0.813 0-1.569 0.379-2.061 0.994-0.539-0.366-1.181-0.567-1.845-0.567-1.133 0-2.165 0.581-2.761 1.504-0.37-0.191-0.782-0.293-1.209-0.293-1.453 0-2.635 1.182-2.635 2.635 0 0.1 0.005 0.2 0.017 0.298-1.354 0.415-2.307 1.663-2.307 3.139 0 0.739 0.247 1.448 0.699 2.025l2.688 21.731c0.038 0.304 0.296 0.533 0.603 0.533h17.78c0.307 0 0.565-0.229 0.603-0.533l2.688-21.731c0.452-0.577 0.7-1.286 0.7-2.025-0-1.476-0.953-2.724-2.307-3.139zM7.647 30.785l-2.555-20.658h2.798l1.664 20.658h-1.906zM10.772 30.785l-1.664-20.658h3.467l0.198 6.537c-1.073 0.915-1.755 2.275-1.755 3.792 0 1.625 0.783 3.071 1.991 3.981l0.192 6.348h-2.427zM17.584 30.785h-3.169l-0.171-5.667c0.546 0.206 1.138 0.32 1.756 0.32s1.21-0.114 1.756-0.32l-0.172 5.667zM16 24.223c-2.077 0-3.767-1.69-3.767-3.767s1.69-3.767 3.767-3.767 3.767 1.69 3.767 3.767-1.69 3.767-3.767 3.767zM13.791 10.127h4.418l-0.175 5.783c-0.622-0.279-1.31-0.436-2.035-0.436s-1.413 0.157-2.034 0.436l-0.175-5.783zM18.8 30.785l0.192-6.348c1.208-0.91 1.99-2.356 1.99-3.981 0-1.517-0.682-2.877-1.755-3.791l0.198-6.538h3.466l-1.664 20.658h-2.428zM24.353 30.785h-1.906l1.664-20.658h2.798l-2.555 20.658zM27.279 8.911h-22.558c-0.249-0.349-0.386-0.767-0.386-1.201 0-0.952 0.628-1.753 1.512-1.995 0.321 0.459 0.896 0.943 1.741 0.943 0.088 0 0.179-0.005 0.274-0.016 0.318-0.038 0.573-0.302 0.564-0.622-0.011-0.367-0.334-0.634-0.688-0.587-0.682 0.091-0.954-0.489-1.002-0.609-0.001-0.002-0.002-0.004-0.003-0.006s-0.001-0.004-0.002-0.005c-0.049-0.119-0.081-0.243-0.096-0.37-0.093-0.797 0.509-1.531 1.31-1.586 0.414-0.028 0.808 0.119 1.1 0.408 0.114 0.112 0.266 0.183 0.425 0.185 0.27 0.004 0.502-0.166 0.586-0.41 0.287-0.836 1.075-1.398 1.959-1.398 0.589 0 1.152 0.252 1.544 0.692 0.108 0.121 0.261 0.199 0.423 0.207 0.273 0.014 0.514-0.151 0.605-0.396 0.205-0.556 0.741-0.93 1.334-0.93 0.622 0 1.178 0.413 1.359 1.007 0.053 0.173 0.168 0.324 0.333 0.399 0.265 0.121 0.565 0.040 0.735-0.178 0.396-0.509 0.992-0.801 1.635-0.801 0.782 0 1.488 0.44 1.84 1.12-0.112 0.178-0.235 0.418-0.315 0.705-0.229 0.831 0.021 1.666 0.705 2.349 0.119 0.119 0.274 0.178 0.43 0.178 0.153 0 0.306-0.057 0.423-0.172 0.244-0.237 0.224-0.642-0.014-0.886-0.351-0.36-0.476-0.725-0.381-1.113 0.010-0.042 0.023-0.083 0.036-0.121 0.116-0.327 0.365-0.596 0.684-0.734 0.22-0.095 0.465-0.134 0.716-0.108 0.715 0.074 1.268 0.695 1.267 1.414-0 0.184-0.036 0.364-0.105 0.535-0.055 0.134-0.062 0.285-0.016 0.422 0.078 0.236 0.286 0.395 0.525 0.416 1.058 0.093 1.887 0.999 1.887 2.063-0 0.434-0.137 0.852-0.386 1.201z"></path>
<path d="M16.329 3.896c-0.468 0-0.915 0.125-1.305 0.359-0.403-0.359-0.93-0.567-1.481-0.567-1.229 0-2.228 0.999-2.228 2.228s0.999 2.228 2.228 2.228c0.336 0 0.608-0.272 0.608-0.608s-0.272-0.608-0.608-0.608c-0.558 0-1.013-0.454-1.013-1.013s0.454-1.013 1.013-1.013c0.361 0 0.687 0.187 0.872 0.5 0.096 0.163 0.264 0.272 0.452 0.294s0.376-0.045 0.508-0.181c0.253-0.261 0.592-0.405 0.955-0.405 0.733 0 1.329 0.596 1.329 1.329 0 0.336 0.272 0.608 0.608 0.608s0.608-0.272 0.608-0.608c0-1.403-1.141-2.544-2.544-2.544z"></path>
</symbol>
</defs>
</svg>
